<?xml version="1.0" encoding="UTF-8"?>
<svg width="400px" height="87px" viewBox="0 0 400 87" version="1.1" xmlns="http://www.w3.org/2000/svg" xmlns:xlink="http://www.w3.org/1999/xlink">
    <!-- Generator: Sketch 46.2 (44496) - http://www.bohemiancoding.com/sketch -->
    <title>Coderblock-WebSummit</title>
    <desc>Created with Sketch.</desc>
    <defs>
        <polygon id="path-1" points="79.8978802 0.198804255 0.0221198157 0.198804255 0.0221198157 86.9777872 79.8978802 86.9777872"></polygon>
    </defs>
    <g id="Page-1" stroke="none" stroke-width="1" fill="none" fill-rule="evenodd">
        <g id="Coderblock-WebSummit">
            <g id="Group-3">
                <mask id="mask-2" fill="white">
                    <use xlink:href="#path-1"></use>
                </mask>
                <g id="Clip-2"></g>
                <path d="M70.4925346,72.2140723 L49.3541014,84.4692255 C43.5343779,87.8433447 36.363871,87.8433447 30.5437788,84.4692255 L9.40534562,72.2140723 C3.58525346,68.8392128 0,62.6037191 0,55.8547404 L0,31.3436936 C0,24.5954553 3.58525346,18.3592213 9.40534562,14.9851021 L30.5437788,2.72957872 C36.363871,-0.644910638 43.5343779,-0.644910638 49.3541014,2.72957872 L70.4925346,14.9851021 C76.3126267,18.3592213 79.8978802,24.5954553 79.8978802,31.3436936 L79.8978802,55.8547404 C79.8978802,62.6037191 76.3126267,68.8392128 70.4925346,72.2140723" id="Fill-1" fill="#35AF7F" mask="url(#mask-2)"></path>
            </g>
            <path d="M39.8744978,83.9888735 C36.799381,84.0250481 33.9211432,83.27023 31.2550725,81.7337425 C25.7033064,78.534343 20.1548962,75.3293496 14.6049946,72.1269666 C14.5274361,72.0822145 14.4524879,72.0314955 14.3712007,71.9956939 C14.048662,71.8528602 13.9815442,71.6015028 14.0039168,71.2692188 C14.0523908,70.5513211 14.2022874,69.8543077 14.3790311,69.1606508 C15.6404741,64.2129374 19.6742577,60.2527529 24.643217,59.0832324 C24.7300974,59.0623481 24.8143676,59.0302758 24.9016208,59.0116291 C25.1059574,58.9683687 25.2461592,59.045939 25.322599,59.2421022 C25.343853,59.2976693 25.3748017,59.3495071 25.4001574,59.4032096 C26.3424176,61.430478 27.796638,63.0165657 29.6125492,64.2897618 C31.596255,65.6808051 33.8010768,66.5467574 36.1684731,67.0065849 C37.5466266,67.2743514 38.9411866,67.4104722 40.3473059,67.3571427 C43.9407218,67.2210218 47.2854288,66.2935354 50.2393606,64.1752711 C51.9124598,62.9755429 53.2734609,61.4949956 54.1840266,59.6284617 C54.2097552,59.5747592 54.2388396,59.5225484 54.267924,59.4703377 C54.4457863,59.1455123 54.4901587,59.119034 54.8242565,59.2159968 C56.5312875,59.71088 58.1018456,60.4817343 59.5061005,61.5748034 C62.3545081,63.7922681 64.1118775,66.6825054 64.792751,70.2238852 C64.8941735,70.749349 64.9258681,71.2878654 64.9937317,71.820042 C65.0287821,72.0919108 64.9158004,72.265698 64.6808878,72.4003271 C63.6457812,72.9910543 62.6162677,73.5922237 61.584517,74.1889178 C57.3780913,76.6193277 53.1683096,79.0437707 48.967477,81.482758 C47.0952615,82.5698602 45.1246064,83.3836019 42.9857838,83.7587733 C42.4581628,83.8512609 41.926813,83.940765 41.3935988,83.9806689 C40.889842,84.0187082 40.3808648,83.9888735 39.8744978,83.9888735" id="Fill-4" fill="#FFFFFE"></path>
            <path d="M40.0358333,27.0007639 C44.6950529,27.0265122 48.8897569,28.4158174 52.514458,31.341561 C55.981853,34.1404021 58.1741439,37.7319234 58.8170629,42.1492297 C59.460352,46.5713179 58.3995542,50.6266766 55.7534817,54.2340147 C52.9508434,58.0546959 49.1414466,60.3908032 44.5388572,61.4718643 C42.8047896,61.8794233 41.0392607,62.0659146 39.2541149,61.979106 C34.8377018,61.7650272 30.8465703,60.3863892 27.4154481,57.5761452 C24.1223852,54.8791937 21.9700686,51.4642323 21.2531232,47.2595334 C20.4680736,42.6520574 21.516287,38.4256564 24.2978277,34.6667711 C27.1756027,30.7780408 31.0875261,28.4514972 35.8037459,27.4178865 C37.1961819,27.1125851 38.6089751,26.9889932 40.0358333,27.0007639" id="Fill-5" fill="#FFFFFE"></path>
            <path d="M25,58.0705147 C24.3919285,58.413534 23.7083065,58.4756526 23.1042693,58.7682738 C22.5182028,59.0519093 21.9137988,59.2996021 21.3482703,59.6238686 C20.7563358,59.9629811 20.1981423,60.3696816 19.6311468,60.7568481 C19.0997261,61.1190108 18.6596261,61.6186938 18.1553449,62 C17.9488646,61.7804364 18.0079114,61.5866578 18.0075446,61.4120227 C18.0038771,58.2271784 18.0064444,55.0419435 18.0038771,51.8567085 C18.0031436,50.8292133 18.2404309,49.8825895 18.8030253,49.0375431 C19.0087721,48.7292945 19.2511938,48.4620676 19.5376256,48.2382065 C20.0015643,47.8764345 20.1185576,47.9045636 20.2293161,48.4761322 C20.9235738,52.0563473 22.4980315,55.1403955 24.8353293,57.798209 C24.8936425,57.8642343 24.929584,57.9525286 25,58.0705147" id="Fill-6" fill="#FFFFFE"></path>
            <path d="M61.9981635,60.998792 C61.6644145,61.0161386 61.561234,60.842673 61.4251152,60.7349028 C59.686128,59.3600955 57.7435577,58.3314813 55.5497828,57.7254588 C55.4283474,57.692242 55.3116741,57.6446312 55.1926197,57.6040329 C55.009276,57.5416591 54.9799093,57.4165424 55.0104666,57.2526727 C55.079915,56.8787989 55.3644549,56.635578 55.6105005,56.3672599 C57.2344019,54.5956961 58.4729641,52.6167117 59.2690409,50.4085312 C59.5206424,49.7113471 59.6908901,48.9886967 59.8988384,48.2774876 C59.9897166,47.9656186 60.1448841,47.9198532 60.4290271,48.1239521 C60.8639724,48.4361902 61.1925624,48.8303631 61.4481324,49.2784212 C61.764817,49.8324039 61.989036,50.4225561 61.9914171,51.050354 C62.0053068,54.3554278 61.9981635,57.6605015 61.9981635,60.998792" id="Fill-7" fill="#FFFFFE"></path>
            <path d="M39.3120433,32 C42.9001053,32.0477802 46.1357488,32.7641063 49.127636,34.4657572 C51.1588154,35.6203817 52.8878692,37.1237638 54.1918181,39.1136005 C55.2446688,40.721196 55.8577303,42.4890619 55.9799755,44.4183269 C56.0904734,46.160986 55.7402574,47.8235099 55.0137611,49.4032649 C54.0372679,51.524403 52.5387545,53.1839171 50.6944304,54.5353056 C48.5857924,56.080072 46.2308284,57.0315368 43.7058958,57.576682 C41.7073886,58.0074559 39.6857539,58.0872149 37.6630178,57.916034 C34.4556413,57.6440257 31.4582475,56.6767597 28.7560043,54.8475696 C27.0963329,53.7237953 25.6620626,52.3535957 24.6352762,50.5936305 C22.3842023,46.7377339 22.4671675,42.8942527 24.8224986,39.1203725 C25.9656565,37.2889251 27.539793,35.9002907 29.3477739,34.7840408 C31.4854131,33.464255 33.8010971,32.6655362 36.2614196,32.2686223 C37.3377648,32.0948079 38.421085,32.0669675 39.3120433,32" id="Fill-8" fill="#1C1C30"></path>
            <path d="M50.6543794,47 C50.9570543,43.1637749 50.0374137,39.9167365 48,37.1223419 C48.1214682,36.9139758 48.2436002,37.0232891 48.3474788,37.0769592 C48.8569152,37.3389953 49.3620371,37.6112919 49.8688185,37.8788529 C51.2066284,38.584851 52.0515959,39.8350476 52.5709887,41.4127893 C53.0661542,42.9167348 53.0628354,44.4873732 52.9075154,46.0659042 C52.8856113,46.286504 52.7644749,46.3895031 52.5982029,46.4376483 C51.9842241,46.6160223 51.3699135,46.7932124 50.6543794,47" id="Fill-9" fill="#FFFFFE"></path>
            <path d="M280.22801,46.9983727 C280.206478,46.5823782 280.19779,46.1656381 280.161526,45.7515073 C280.005514,43.9701112 279.528033,42.2934593 278.369842,40.8788541 C276.87885,39.0586915 274.848426,38.3381561 272.553952,38.2874614 C269.546658,38.2218565 267.065197,39.4485932 264.945623,41.4730255 C264.833052,41.580379 264.760146,41.7831577 264.759768,41.9423241 C264.749569,45.295628 264.748813,48.6493046 264.760902,52.0029812 C264.761657,52.1725847 264.852318,52.3872916 264.975465,52.5039639 C267.241607,54.6461869 269.878325,55.8807514 273.088473,55.6313783 C275.803764,55.4200262 277.927493,54.2566579 279.192211,51.7990842 C279.966227,50.2946451 280.214033,48.6701789 280.22801,46.9983727 Z M261.261395,19 C261.398897,19.0413758 261.534511,19.0905795 261.674279,19.1222636 C263.579667,19.558387 264.74768,21.0221958 264.750324,23.0007793 C264.755235,26.3104708 264.751835,29.6201624 264.751835,32.9291084 C264.751835,33.1065398 264.751835,33.2835984 264.751835,33.5579461 C265.079725,33.3581494 265.33962,33.2027106 265.596114,33.0431715 C268.346158,31.3400539 271.354963,30.7033884 274.555289,31.0627242 C280.899278,31.7746862 285.866356,36.1258552 287.37548,42.2673664 C288.450944,46.6468648 288.204649,50.9417478 286.109251,54.9965765 C283.843109,59.3816662 280.168325,62.0110799 275.2496,62.803557 C271.457712,63.4141297 267.937807,62.6000328 264.785078,60.3802769 C264.713305,60.3299549 264.638887,60.2837333 264.644176,60.2870881 C264.187094,60.8264646 263.818029,61.4273456 263.297863,61.8437129 C262.038811,62.8508969 260.595794,63.0037265 259.14371,62.3029471 C257.720336,61.6159596 257.001093,60.4294805 257.001093,58.8501176 C256.999582,46.8790911 256.99996,34.9076919 257.000338,22.9366654 C257.000338,20.9174517 258.2711,19.4346323 260.299257,19.0827516 C260.351387,19.0734327 260.397096,19.0283294 260.445448,19 C260.71743,19 260.989413,19 261.261395,19 L261.261395,19 Z" id="Fill-10" fill="#1A1919"></path>
            <path d="M187.242281,46.9818886 C187.242281,45.5515069 187.204853,44.1200071 187.257782,42.6911162 C187.285002,41.9505825 187.093325,41.4303081 186.492586,40.935004 C184.121765,38.979503 181.464374,37.9631792 178.350285,38.3727648 C175.608586,38.733528 173.589361,40.124032 172.552718,42.6844078 C171.510782,45.2593184 171.503598,47.9091397 172.294502,50.5574701 C172.671807,51.8212597 173.319804,52.9419366 174.336788,53.8177565 C176.313291,55.5202014 178.655758,55.8969904 181.159656,55.5388359 C183.468097,55.2090058 185.37655,54.0760302 187.02225,52.4894917 C187.159486,52.3568143 187.231317,52.0996587 187.23283,51.8995245 C187.249464,50.2604367 187.242281,48.621349 187.242281,46.9818886 Z M191.552177,19 C191.733647,19.0536673 191.913226,19.1125522 192.096585,19.159511 C193.851545,19.6086017 194.999716,21.0632082 194.999716,22.8468994 C195.000095,34.8460055 195.000095,46.8443662 194.999716,58.8430996 C194.999716,60.6853031 193.825837,62.1797873 192.056511,62.5893729 C190.24333,63.0097665 188.456235,62.1835142 187.626769,60.542563 C187.574597,60.4389554 187.51751,60.3368385 187.500119,60.3036692 C186.401851,60.871275 185.372013,61.5506877 184.241232,61.9632548 C178.77031,63.9582609 173.745123,63.0645518 169.311978,59.3641193 C166.075397,56.662867 164.522323,53.0541161 164.112126,48.9493156 C163.762042,45.4426816 164.198702,42.0392825 165.890904,38.8960206 C168.392912,34.2493299 172.330796,31.5879553 177.651628,31.0438288 C181.026957,30.6987185 184.1539,31.4847203 186.962516,33.4036977 C187.020359,33.4432028 187.086898,33.4707818 187.216573,33.540102 C187.226781,33.3131342 187.241525,33.1435606 187.241525,32.9743596 C187.242659,29.7554418 187.286514,26.5350331 187.227159,23.316488 C187.186328,21.0941414 188.499712,19.3328116 190.677344,19.0622391 C190.698894,19.0592576 190.715906,19.021616 190.735566,19 C191.00777,19 191.279973,19 191.552177,19 L191.552177,19 Z" id="Fill-11" fill="#1A1919"></path>
            <path d="M400,59.69451 C399.876402,60.0868962 399.789156,60.4972888 399.621936,60.869418 C398.589529,63.1573377 395.419605,63.7519193 393.70014,61.9175321 C392.849495,61.0100919 392.155165,59.9402203 391.424483,58.9194908 C389.221532,55.8516752 387.036756,52.7714803 384.848346,49.6965372 C384.804723,49.6376418 384.753829,49.5851235 384.69203,49.5130985 C383.685071,50.4569263 382.678111,51.3816225 381.700233,52.3348286 C381.558459,52.4743771 381.471213,52.7485973 381.471213,52.9616713 C381.453037,54.9869998 381.460308,57.0123283 381.460308,59.0380319 C381.456672,60.8810471 380.387914,62.3579351 378.7048,62.8399775 C377.054404,63.3130168 375.353115,62.6366569 374.498835,61.0464796 C374.204381,60.4946629 374.022619,59.7987962 374.022619,59.167827 C373.993537,47.090507 374.000808,35.0131871 374.000808,22.935492 C374.000808,21.0005699 375.244058,19.4565336 377.087121,19.0919069 C377.167096,19.0761515 377.239801,19.0311358 377.316141,19 C377.577878,19 377.839615,19 378.101352,19 C378.115892,19.0240083 378.126798,19.0648975 378.144974,19.0693991 C380.467889,19.6399723 381.460308,20.9334216 381.460308,23.3946515 C381.460308,29.6184382 381.460308,35.842225 381.460308,42.0660118 C381.460308,42.2502008 381.460308,42.4343898 381.460308,42.6981064 C381.605717,42.5956958 381.671151,42.5623092 381.722044,42.5146677 C383.117974,41.1848307 384.510269,39.8538684 385.906199,38.5221559 C388.03281,36.4896999 390.152152,34.4452398 392.293304,32.427789 C393.70014,31.1028288 395.979431,31.1069553 397.251763,32.3951527 C398.760385,33.9245589 398.724033,36.4004189 397.106354,37.9703392 C395.543203,39.4854905 393.918254,40.9319929 392.318751,42.4096312 C391.580799,43.094244 390.839211,43.7803573 390.093988,44.4724727 C390.159422,44.5737579 390.192139,44.63753 390.235762,44.6953001 C392.409632,47.6700834 394.619854,50.6178572 396.746466,53.6294033 C397.917011,55.2871041 399.454715,56.7129743 400,58.7938221 C400,59.0939263 400,59.3940306 400,59.69451" id="Fill-12" fill="#1A1919"></path>
            <path d="M99,45.6919077 C99.0604816,45.3226568 99.1300354,44.9537785 99.1795547,44.5826646 C99.603304,41.4192537 100.806132,38.5930498 102.978555,36.2076368 C105.18122,33.7883169 107.923682,32.224869 111.128451,31.5120769 C116.205881,30.3834584 120.98733,31.0876806 125.371868,33.9511449 C126.580744,34.7403209 127.197278,36.2094999 126.921331,37.561681 C126.635177,38.9630459 125.47393,40.1333962 124.093816,40.3729808 C123.217211,40.5257485 122.388991,40.3647835 121.609912,39.9277186 C119.755773,38.8877799 117.788987,38.243547 115.62488,38.3139692 C114.120022,38.3627803 112.659013,38.5967759 111.282301,39.2369101 C109.335549,40.1415935 108.01138,41.6036929 107.33512,43.6027152 C106.520131,46.0112296 106.526935,48.444336 107.483678,50.8044119 C108.608258,53.5803142 110.830579,55.0371972 113.756754,55.5264267 C116.256156,55.9444888 118.646692,55.641934 120.903033,54.4455015 C121.68249,54.0319107 122.453252,53.5989444 123.397899,53.5970814 C124.897465,53.5933554 125.925274,54.3080105 126.584902,55.5644323 C127.250199,56.8305419 127.097105,58.0672157 126.259435,59.2167001 C125.666337,60.0300954 124.773856,60.4619438 123.916529,60.9265814 C120.853514,62.5880242 117.561803,63.1827007 114.093939,62.9524312 C110.691471,62.7270056 107.596703,61.6665736 104.908674,59.5799893 C101.467649,56.9087888 99.6456411,53.3492995 99.1353276,49.0975114 C99.1028187,48.8255102 99.0457392,48.5561173 99,48.2856065 C99,47.4207919 99,46.5563498 99,45.6919077" id="Fill-13" fill="#1A1919"></path>
            <path d="M296.888867,19 C297.232634,19.1212141 297.591407,19.2052759 297.916758,19.3703973 C299.268296,20.0560264 299.993685,21.228013 299.994708,22.8720967 C300.002893,34.9841264 299.999142,47.0961561 299.999142,59.2089363 C299.999142,61.2639471 298.541201,62.9181633 296.660371,62.9969712 C294.750212,63.076905 293.1903,61.5660442 293.04263,59.4877663 C293.019099,59.1597751 293.002729,58.8302829 293.002729,58.5011659 C293.000683,46.7644122 293.001706,35.0269078 293.000001,23.2901541 C292.999659,22.2761586 293.172225,21.3270859 293.753355,20.5048564 C294.267642,19.7775717 294.937101,19.329117 295.751161,19.1287196 C295.860635,19.1016998 295.96397,19.043532 296.070374,19 C296.343205,19 296.616036,19 296.888867,19" id="Fill-14" fill="#1A1919"></path>
            <path d="M221.219743,43.3313131 C220.768345,40.3248413 218.113786,37.8276381 214.481446,37.8689604 C210.82609,37.9102826 208.360851,40.4998093 207.963279,43.3313131 C212.382224,43.3313131 216.799684,43.3313131 221.219743,43.3313131 Z M207.980726,50.0485961 C208.709051,52.8458508 210.389541,54.6621678 213.148784,55.3002426 C216.538349,56.083876 219.824345,55.6926177 222.948492,54.1011533 C224.599286,53.2598177 226.635772,53.8413072 227.584969,55.4015007 C228.446559,56.8187417 228.12286,58.7750331 226.797622,59.7786795 C224.90925,61.20895 222.754718,62.0882574 220.448729,62.5308892 C217.094058,63.1749205 213.727508,63.2114031 210.408102,62.290029 C205.628707,60.9632502 202.423636,57.9169453 200.962904,53.1678664 C199.599431,48.7367082 199.650659,44.2690673 201.330036,39.9265099 C203.410697,34.5471739 207.382328,31.5645275 213.138018,31.0686607 C216.183096,30.8062086 219.103074,31.2778778 221.803293,32.8000995 C224.789719,34.4842598 226.766068,37.0194348 227.956184,40.2005023 C228.632538,42.0101184 228.934336,43.890094 228.996329,45.824049 C229.042731,47.2751668 228.655925,48.4884025 227.454301,49.3613812 C226.799107,49.8371454 226.049994,50.0485961 225.241488,50.0485961 C219.674746,50.0482238 214.108375,50.0485961 208.542004,50.0485961 C208.36976,50.0485961 208.197145,50.0485961 207.980726,50.0485961 L207.980726,50.0485961 Z" id="Fill-15" fill="#1A1919"></path>
            <path d="M137.650547,46.9717095 C137.709617,47.6490181 137.733022,48.332268 137.835558,49.003264 C138.12385,50.8822013 138.823773,52.5777008 140.277117,53.8647357 C142.152867,55.5268154 144.385265,56.0693307 146.819765,55.6872306 C149.29736,55.2984465 151.21509,54.0203236 152.332218,51.7303224 C153.518447,49.2988439 153.594235,46.7348 153.014309,44.1373363 C152.584473,42.2127253 151.591057,40.6349378 149.919266,39.540624 C148.457749,38.5840741 146.83091,38.1815508 145.097077,38.2855236 C142.359054,38.4496521 140.178295,39.5862977 138.801111,42.0415415 C137.942553,43.5714272 137.701072,45.2446468 137.650547,46.9717095 Z M145.493849,31 C148.853406,31.0883769 151.972597,31.8807983 154.729567,33.8221192 C157.719844,35.9275687 159.555843,38.8399215 160.404741,42.3671992 C161.345031,46.2717497 161.217232,50.1477076 159.691815,53.8877583 C157.715386,58.7340054 154.068652,61.6341042 148.951485,62.6426405 C145.701894,63.282816 142.484624,63.0826683 139.372863,61.8817823 C135.427064,60.3600659 132.694243,57.5843631 131.23384,53.6397088 C129.563535,49.1295167 129.571708,44.5621395 131.364612,40.0968785 C133.254107,35.391366 136.815023,32.5540222 141.756838,31.4853302 C142.980218,31.2205709 144.246692,31.1563306 145.493849,31 L145.493849,31 Z" id="Fill-16" fill="#1A1919"></path>
            <path d="M314.686112,47.0733918 C314.663804,48.8634059 314.953806,50.6571307 315.948366,52.2504807 C317.699906,55.0568399 320.351196,56.0928514 323.532671,55.7254978 C326.497759,55.3833765 328.611058,53.7811209 329.67849,50.9469319 C330.449227,48.9001413 330.515035,46.7869301 330.125019,44.6529394 C329.805273,42.9007739 329.070229,41.3571464 327.707218,40.1678854 C326.068332,38.7378036 324.118996,38.1737859 321.980043,38.3110797 C319.436202,38.474719 317.35339,39.5244599 315.973276,41.7360031 C314.968307,43.3464221 314.669753,45.1427443 314.686112,47.0733918 Z M322.548894,31.120967 C325.97687,31.1280172 329.162434,31.9595722 331.952034,34.0085892 C335.021969,36.263918 336.815522,39.3489465 337.560233,43.039923 C338.384509,47.126454 338.106033,51.1332062 336.247043,54.9113827 C334.045628,59.3856759 330.351444,61.9300638 325.467135,62.7330469 C321.869991,63.3237812 318.357244,62.9690438 315.061256,61.3178077 C311.357034,59.4621152 308.981245,56.4628025 307.825697,52.523213 C306.658996,48.5461459 306.700265,44.5505257 308.131315,40.6524953 C309.90033,35.8345966 313.35805,32.8011461 318.359103,31.6040927 C319.718396,31.2786693 321.136433,31.1944377 322.527329,31 C322.534394,31.0400749 322.54183,31.080892 322.548894,31.120967 L322.548894,31.120967 Z" id="Fill-17" fill="#1A1919"></path>
            <path d="M357.616924,31.0008234 C360.985057,30.968011 364.262784,31.915842 367.254537,33.8435706 C368.555414,34.6821512 369.202259,36.0684751 368.934443,37.5207968 C368.6723,38.9429161 367.538619,40.0935874 366.094377,40.3590695 C365.33405,40.4988951 364.606255,40.3687641 363.890943,40.0536905 C362.710356,39.5335393 361.546413,38.9115952 360.305681,38.6028603 C357.869988,37.9962037 355.43959,38.2053828 353.151045,39.2870734 C351.313778,40.1558563 350.045054,41.5779757 349.378917,43.4822136 C348.564876,45.8081654 348.542936,48.1535064 349.371352,50.4794582 C350.361289,53.2584449 352.440272,54.8110681 355.292443,55.433758 C358.277387,56.0851587 361.063738,55.5463642 363.701807,54.061603 C365.460771,53.0716379 367.420598,53.6108053 368.483921,55.3211518 C369.471967,56.9095703 369.003667,58.9782431 367.400928,60.0491206 C364.767399,61.8090585 361.864161,62.7747871 358.682516,62.9615941 C354.549895,63.2035855 350.731239,62.3157863 347.349488,59.906312 C344.049443,57.5550052 342.100964,54.3341696 341.342907,50.4179349 C340.767934,47.4461754 340.901464,44.4911949 341.853953,41.6029578 C343.115868,37.7784487 345.553453,34.894686 349.142497,32.979635 C351.717394,31.6059885 354.488615,30.985163 357.616924,31.0008234" id="Fill-18" fill="#1A1919"></path>
            <path d="M242.473089,34.0738014 C243.588131,33.3641117 244.650077,32.5991655 245.791111,31.9834495 C247.315337,31.1606154 248.992172,30.9087658 250.707251,31.0279245 C252.464659,31.1500904 253.909054,32.8062836 253.994826,34.5853945 C254.104362,36.8625662 252.463545,38.5661222 250.127636,38.5473274 C247.078813,38.5225183 244.721368,39.8667187 242.8845,42.2483893 C242.728178,42.4509966 242.632009,42.7588546 242.631638,43.0178463 C242.617157,48.383371 242.621241,53.7488958 242.619756,59.1144205 C242.619385,60.6864133 241.699651,62.1144383 240.333974,62.6733941 C238.766676,63.3150468 237.156678,63.0023022 236.037179,61.8140982 C235.366965,61.1029049 235.004567,60.2432331 235.004196,59.2553811 C234.999369,51.1995761 234.997883,43.1437711 235.004196,35.0883419 C235.005681,33.2419458 236.296353,31.7067908 238.115399,31.3436763 C239.805229,31.0057467 241.595684,31.9796906 242.28632,33.6133301 C242.360953,33.7903766 242.431502,33.9704303 242.473089,34.0738014" id="Fill-19" fill="#1A1919"></path>
        </g>
    </g>
</svg>