<?xml version="1.0" encoding="UTF-8"?>
<svg width="270px" height="48px" viewBox="0 0 270 48" version="1.1" xmlns="http://www.w3.org/2000/svg" xmlns:xlink="http://www.w3.org/1999/xlink" xmlns:sketch="http://www.bohemiancoding.com/sketch/ns">
    <!-- Generator: Sketch 3.1.1 (8761) - http://www.bohemiancoding.com/sketch -->
    <title>kiratech_logo_ok</title>
    <desc>Created with Sketch.</desc>
    <defs></defs>
    <g id="Page-1" stroke="none" stroke-width="1" fill="none" fill-rule="evenodd" sketch:type="MSPage">
        <g id="kiratech_logo_ok" sketch:type="MSLayerGroup" transform="translate(0.000000, 1.000000)">
            <path d="M-0.001,-0.2295 L0,34.3995 L34.628,34.3995 L34.627,-0.2285 L-0.001,-0.2295 Z" id="Fill-1" fill="#414140" sketch:type="MSShapeGroup"></path>
            <path d="M68.082,0.1152 L62.058,0.1152 L47.266,14.3712 L47.266,0.1152 L42.616,0.1162 L42.617,33.8892 L47.267,33.8882 L47.267,21.7662 L48.791,19.9382 L63.819,33.8892 L69.689,33.8882 L51.841,16.2012 L68.082,0.1152 Z" id="Fill-2" fill="#414140" sketch:type="MSShapeGroup"></path>
            <path d="M72.7725,33.8877 L77.4215,33.8877 L77.4235,0.1157 L72.7725,0.1157 L72.7725,33.8877 Z" id="Fill-3" fill="#414140" sketch:type="MSShapeGroup"></path>
            <g id="Group-41" transform="translate(4.000000, 0.000000)" sketch:type="MSShapeGroup">
                <path d="M100.377,12.7715 L100.224,13.4565 C100.02,13.9645 99.664,14.3225 99.156,14.5255 L98.472,14.6765 L87.264,14.6785 L87.265,4.7655 L98.471,4.7665 L99.155,4.9165 C99.665,5.1215 100.02,5.4775 100.224,5.9865 L100.377,6.6725 L100.377,12.7715 Z M104.95,5.4515 C104.596,2.6065 102.867,0.8525 99.766,0.1925 L82.612,0.1155 L82.613,33.8885 L87.263,33.8885 L87.264,19.3275 L93.516,19.3275 L99.995,33.8895 L105.102,33.8895 L98.624,19.3275 L99.766,19.2485 C102.867,18.5905 104.596,16.8355 104.95,13.9915 L105.026,12.7705 L105.028,6.6725 L104.95,5.4515 Z" id="Fill-4" fill="#414140"></path>
                <path d="M120.2397,20.8525 L125.3477,7.0525 L130.5317,20.8515 L120.2397,20.8525 Z M123.1367,0.0385 L114.1417,23.9025 L114.1417,33.8885 L118.7907,33.8885 L118.7907,25.5035 L131.9057,25.5035 L131.9037,33.8895 L136.6297,33.8885 L136.6307,23.9025 L127.7117,0.0395 L123.1367,0.0385 Z" id="Fill-6" fill="#414140"></path>
                <path d="M164.8545,0.1162 L142.3655,0.1152 L142.3655,4.7662 L151.2835,4.7662 L151.2845,33.8882 L155.9345,33.8882 L155.9335,4.7662 L164.8555,4.7662 L164.8545,0.1162 Z" id="Fill-8" fill="#414140"></path>
                <path d="M195.2373,4.7666 L195.2383,0.1156 L172.7493,0.1156 L172.7483,33.8886 L195.2383,33.8886 L195.2373,29.2396 L177.3983,29.2396 L177.3993,19.3266 L190.5103,19.3276 L190.5103,14.6776 L177.3993,14.6776 L177.3993,4.7666 L195.2373,4.7666 Z" id="Fill-10" fill="#414140"></path>
                <path d="M223.4736,2.0166 C222.5106,1.0026 221.3946,0.4196 220.1266,0.2686 L218.8326,0.1906 L209.6296,0.1926 L208.3356,0.2676 C207.0686,0.4186 205.9276,1.0026 204.9136,2.0166 C203.9496,3.0316 203.3416,4.1726 203.0876,5.4406 L203.0116,27.2726 L203.0876,28.5646 C203.3406,29.8316 203.9496,30.9746 204.9126,31.9876 C205.9266,33.0016 207.0696,33.5856 208.3356,33.7376 L209.6286,33.8136 L218.8326,33.8146 L220.1276,33.7376 C221.3956,33.5846 222.5096,33.0016 223.4736,31.9876 C224.4886,30.9746 225.1216,29.8316 225.3736,28.5656 L225.4506,27.2716 L225.4516,24.6856 L220.8126,24.6846 L220.8116,27.2726 L220.6596,28.0326 C220.4076,28.5386 220.0506,28.8686 219.5936,29.0206 L218.8326,29.1736 L209.6296,29.1726 L208.8686,29.0206 C208.3616,28.8686 208.0056,28.5386 207.8036,28.0336 L207.6506,27.2726 L207.6526,6.7336 L207.8046,6.0496 C208.0076,5.5416 208.3626,5.1866 208.8696,4.9836 L209.6296,4.8316 L218.8326,4.8316 L219.5956,4.9846 C220.0496,5.1866 220.4066,5.5416 220.6596,6.0486 L220.8126,6.7346 L220.8126,9.3206 L225.4516,9.3206 L225.4516,6.7336 L225.3746,5.4406 C225.1216,4.1726 224.4896,3.0316 223.4736,2.0166" id="Fill-12" fill="#414140"></path>
                <path d="M250.6025,14.7217 L237.5195,14.7207 L237.5175,0.1917 L232.8785,0.1917 L232.8785,33.8877 L237.5195,33.8897 L237.5185,19.3607 L250.6035,19.3617 L250.6025,33.8897 L255.3185,33.8897 L255.3185,0.1907 L250.6035,0.1917 L250.6025,14.7217 Z" id="Fill-14" fill="#414140"></path>
                <path d="M173.3235,46.334 L172.9685,41.375 L172.9685,39.475 L173.9125,39.475 L173.9125,41.326 L174.0975,43.996 L175.6155,39.536 L177.1015,43.996 L177.2875,41.342 L177.2875,39.475 L178.2325,39.475 L178.2325,41.375 L177.8915,46.334 L176.9345,46.334 L175.5905,42.448 L174.2675,46.334 L173.3235,46.334 Z" id="Fill-16" fill="#414140"></path>
                <path d="M181.5754,46.334 L181.5754,39.475 L186.1424,39.475 L186.1424,40.419 L182.5194,40.419 L182.5194,42.432 L185.1824,42.432 L185.1824,43.377 L182.5194,43.377 L182.5194,45.39 L186.1424,45.39 L186.1424,46.334 L181.5754,46.334 Z" id="Fill-18" fill="#414140"></path>
                <path d="M197.3645,45.3896 L197.5205,45.3586 C197.6355,45.3176 197.7025,45.2436 197.7225,45.1406 L197.7545,45.0006 L197.7545,40.6526 C197.7305,40.5486 197.6545,40.4766 197.5265,40.4346 L197.3515,40.4186 L195.0755,40.4186 L195.0755,45.3896 L197.3645,45.3896 Z M197.3515,46.3336 L194.1315,46.3336 L194.1315,39.4746 L197.6145,39.4906 C197.8515,39.5006 198.0795,39.6186 198.2965,39.8456 C198.5125,40.0726 198.6365,40.3086 198.6685,40.5556 L198.6985,40.8036 L198.6985,45.2376 C198.6675,45.4846 198.5425,45.7156 198.3265,45.9326 C198.1095,46.1486 197.8745,46.2726 197.6215,46.3026 L197.3515,46.3336 Z" id="Fill-20" fill="#414140"></path>
                <path d="M201.9807,46.334 L201.9807,39.475 L206.5477,39.475 L206.5477,40.419 L202.9247,40.419 L202.9247,42.432 L205.5877,42.432 L205.5877,43.377 L202.9247,43.377 L202.9247,45.39 L206.5477,45.39 L206.5477,46.334 L201.9807,46.334 Z" id="Fill-22" fill="#414140"></path>
                <path d="M211.3635,46.334 L209.5365,41.487 L209.5365,39.475 L210.4805,39.475 L210.4805,41.272 L211.8155,44.901 L213.1435,41.318 L213.1435,39.475 L214.0885,39.475 L214.0885,41.487 L212.2925,46.334 L211.3635,46.334 Z" id="Fill-24" fill="#414140"></path>
                <path d="M220.6331,45.3896 L220.7891,45.3576 C220.8941,45.3146 220.9671,45.2446 221.0091,45.1486 L221.0251,44.9876 L221.0251,40.8066 L221.0091,40.6666 C220.9671,40.5636 220.8941,40.4916 220.7891,40.4506 L220.6331,40.4186 L218.7381,40.4186 L218.5801,40.4506 C218.4871,40.4916 218.4131,40.5636 218.3621,40.6666 L218.3461,40.8066 L218.3461,44.9876 L218.3621,45.1486 C218.4131,45.2556 218.4871,45.3256 218.5801,45.3576 L218.7381,45.3896 L220.6331,45.3896 Z M218.4821,46.3026 C218.2211,46.2726 217.9881,46.1546 217.7851,45.9486 C217.5811,45.7426 217.4531,45.5096 217.4021,45.2526 L217.4021,44.9906 L217.4021,40.5556 C217.4531,40.2986 217.5811,40.0676 217.7851,39.8616 C217.9881,39.6556 218.2211,39.5356 218.4821,39.5056 L218.7481,39.4746 L220.6221,39.4746 L220.8881,39.5056 C221.1491,39.5356 221.3811,39.6556 221.5851,39.8616 C221.7891,40.0676 221.9171,40.2986 221.9691,40.5556 L221.9691,40.8186 L221.9691,45.2526 C221.9171,45.5096 221.7891,45.7426 221.5851,45.9486 C221.3811,46.1546 221.1491,46.2726 220.8881,46.3026 L220.6221,46.3336 L218.7481,46.3336 L218.4821,46.3026 Z" id="Fill-26" fill="#414140"></path>
                <path d="M228.471,42.4473 L228.61,42.4163 C228.734,42.3743 228.806,42.3013 228.826,42.1963 L228.858,42.0543 L228.858,40.8123 L228.826,40.6553 C228.785,40.5503 228.713,40.4763 228.61,40.4343 L228.471,40.4193 L226.195,40.4193 L226.195,42.4473 L228.471,42.4473 Z M225.25,46.3343 L225.25,39.4743 L228.722,39.4903 C228.98,39.5423 229.211,39.6683 229.416,39.8693 C229.622,40.0703 229.741,40.3013 229.772,40.5583 L229.802,40.8213 L229.802,42.0453 L229.772,42.2933 C229.741,42.5513 229.624,42.7803 229.42,42.9813 C229.216,43.1823 228.987,43.3093 228.732,43.3613 L228.502,43.3913 L226.195,43.3913 L226.195,46.3343 L225.25,46.3343 Z" id="Fill-28" fill="#414140"></path>
                <path d="M234.1467,46.334 L233.8807,46.303 C233.2887,46.23 232.9297,45.88 232.8057,45.25 L232.8057,44.987 L232.8057,44.708 L233.7507,44.708 L233.7507,44.987 L233.7657,45.148 C233.8177,45.256 233.8907,45.325 233.9847,45.357 L234.1417,45.39 L236.0377,45.39 L236.1937,45.357 C236.2877,45.325 236.3607,45.256 236.4137,45.148 L236.4287,44.987 L236.4287,43.764 L236.4127,43.619 C236.3587,43.512 236.2837,43.437 236.1877,43.394 L236.0267,43.361 L233.8797,43.361 C233.6097,43.31 233.3757,43.186 233.1787,42.989 C232.9817,42.794 232.8577,42.562 232.8057,42.293 L232.8057,42.045 L232.8057,40.821 L232.8057,40.559 C232.8577,40.301 232.9857,40.068 233.1897,39.861 C233.3927,39.655 233.6257,39.536 233.8857,39.506 L234.1527,39.475 L236.0267,39.475 L236.2927,39.505 C236.5527,39.536 236.7857,39.653 236.9897,39.858 C237.1937,40.062 237.3217,40.292 237.3737,40.548 L237.3737,40.809 L237.3737,41.038 L236.4287,41.038 L236.4287,40.807 L236.4137,40.667 C236.3717,40.563 236.2977,40.491 236.1937,40.45 L236.0377,40.419 L234.1417,40.419 L233.9847,40.45 C233.8907,40.481 233.8177,40.554 233.7657,40.667 L233.7507,40.807 L233.7507,42.029 L233.7657,42.169 C233.8077,42.273 233.8797,42.345 233.9847,42.386 L234.1407,42.417 L236.0617,42.417 L236.2967,42.447 C236.5557,42.479 236.7877,42.598 236.9907,42.804 C237.1937,43.011 237.3217,43.242 237.3737,43.5 L237.3737,43.764 L237.3737,44.987 L237.3737,45.25 C237.2387,45.88 236.8797,46.23 236.2977,46.303 L236.0327,46.334 L234.1467,46.334 Z" id="Fill-30" fill="#414140"></path>
                <path d="M246.461,46.334 L245.517,46.334 L245.517,39.475 L246.461,39.475 L246.461,46.334 Z" id="Fill-32" fill="#414140"></path>
                <path d="M251.6008,46.334 L251.6008,40.419 L249.7898,40.419 L249.7898,39.475 L254.3568,39.475 L254.3568,40.419 L252.5448,40.419 L252.5448,46.334 L251.6008,46.334 Z" id="Fill-34" fill="#414140"></path>
                <path d="M264.5684,4.7388 C264.4224,5.1058 264.2164,5.4248 263.9574,5.6938 C263.6954,5.9638 263.3904,6.1758 263.0394,6.3288 C262.6874,6.4828 262.3084,6.5598 261.9004,6.5598 C261.4864,6.5598 261.1014,6.4828 260.7484,6.3288 C260.3924,6.1758 260.0864,5.9638 259.8254,5.6938 C259.5644,5.4248 259.3614,5.1058 259.2134,4.7388 C259.0664,4.3718 258.9924,3.9718 258.9924,3.5388 C258.9924,3.1188 259.0664,2.7268 259.2134,2.3628 C259.3614,1.9988 259.5644,1.6838 259.8254,1.4168 C260.0864,1.1498 260.3924,0.9398 260.7484,0.7858 C261.1014,0.6328 261.4864,0.5558 261.9004,0.5558 C262.3084,0.5558 262.6874,0.6328 263.0394,0.7858 C263.3904,0.9398 263.6954,1.1498 263.9574,1.4168 C264.2164,1.6838 264.4224,1.9988 264.5684,2.3628 C264.7164,2.7268 264.7904,3.1188 264.7904,3.5388 C264.7904,3.9718 264.7164,4.3718 264.5684,4.7388 M265.1464,2.1558 C264.9594,1.7288 264.7044,1.3588 264.3844,1.0458 C264.0644,0.7318 263.6914,0.4848 263.2644,0.3058 C262.8384,0.1278 262.3824,0.0378 261.9004,0.0378 C261.4184,0.0378 260.9614,0.1278 260.5314,0.3058 C260.1014,0.4848 259.7244,0.7318 259.4024,1.0458 C259.0784,1.3588 258.8224,1.7288 258.6344,2.1558 C258.4474,2.5818 258.3524,3.0438 258.3524,3.5388 C258.3524,4.0468 258.4474,4.5158 258.6344,4.9458 C258.8224,5.3758 259.0784,5.7488 259.4024,6.0658 C259.7244,6.3828 260.1014,6.6288 260.5314,6.8038 C260.9614,6.9798 261.4184,7.0678 261.9004,7.0678 C262.3824,7.0678 262.8384,6.9798 263.2644,6.8038 C263.6914,6.6288 264.0644,6.3828 264.3844,6.0658 C264.7044,5.7488 264.9594,5.3758 265.1464,4.9458 C265.3364,4.5158 265.4284,4.0468 265.4284,3.5388 C265.4284,3.0438 265.3364,2.5818 265.1464,2.1558" id="Fill-35" fill="#414140"></path>
                <path d="M261.834,3.3223 L261.166,3.3223 L261.166,2.0143 L262.014,2.0143 C262.119,2.0143 262.228,2.0223 262.338,2.0373 C262.447,2.0533 262.545,2.0833 262.63,2.1273 C262.714,2.1713 262.783,2.2343 262.836,2.3153 C262.891,2.3973 262.917,2.5073 262.917,2.6443 C262.917,2.8083 262.887,2.9353 262.828,3.0263 C262.768,3.1173 262.687,3.1843 262.588,3.2283 C262.486,3.2723 262.373,3.2993 262.244,3.3083 C262.115,3.3183 261.978,3.3223 261.834,3.3223 M263.246,3.4873 C263.453,3.3153 263.557,3.0433 263.557,2.6733 C263.557,2.2783 263.439,1.9833 263.203,1.7883 C262.969,1.5933 262.605,1.4963 262.117,1.4963 L260.525,1.4963 L260.525,5.6093 L261.166,5.6093 L261.166,3.8403 L261.844,3.8403 L262.964,5.6093 L263.65,5.6093 L262.475,3.7933 C262.781,3.7613 263.039,3.6593 263.246,3.4873" id="Fill-36" fill="#414140"></path>
                <path d="M0.168,16.9531 C0.168,16.1231 0.244,15.3091 0.39,14.5211 L15.897,30.0311 C15.11,30.1781 14.299,30.2541 13.469,30.2541 C6.123,30.2541 0.168,24.2991 0.168,16.9531" id="Fill-37" fill="#E15D29"></path>
                <path d="M26.3223,20.3848 C25.3833,23.9128 23.0293,26.8638 19.9063,28.5948 L13.1583,21.7758 L13.1583,20.3838 L26.3223,20.3848" id="Fill-38" fill="#F8D1B3"></path>
                <path d="M13.1582,3.6562 L13.4682,3.6522 C20.6352,3.6522 26.4762,9.3202 26.7592,16.4182 L13.1582,16.4182 L13.1582,3.6562" id="Fill-39" fill="#F0A87D"></path>
                <path d="M1.8213,10.5244 C3.4253,7.6264 6.0803,5.3884 9.2703,4.3284 L9.2713,18.0214 L1.8213,10.5244" id="Fill-40" fill="#E98350"></path>
            </g>
        </g>
    </g>
</svg>