<svg id="Livello_1" data-name="Livello 1" xmlns="http://www.w3.org/2000/svg" viewBox="0 0 938 154.59"><defs><style>.cls-1{fill:#29235c;}.cls-2{fill:#ec6408;}</style></defs><title>Laramind_Logo</title><polygon class="cls-1" points="116.44 28.04 116.43 28.04 116.44 28.06 116.44 28.04"/><polygon class="cls-1" points="116.44 28.06 116.44 28.06 116.44 28.06 116.44 28.06"/><path class="cls-1" d="M522,795.52a38.91,38.91,0,0,0-16.42-28.42,41.38,41.38,0,0,0-8.72-4.71,45.74,45.74,0,0,0-9.82-2.65l-0.39-.06v0l-0.88-.14-0.29,0-1.58-.15-8.8-.75-6.32-5.93-0.18-.17L468,752h0l0,0-0.54-.48h0l-0.26-.23-1-.8h0a45.13,45.13,0,0,0-8.51-5.53,41.48,41.48,0,0,0-9-3.25,4.54,4.54,0,0,0-.8-0.18,39,39,0,0,0-31.64,6.92,41.45,41.45,0,0,0-7.2,6.85,45.22,45.22,0,0,0-5.53,8.51l-0.57,1.13h0l-0.08.16,0,0.11h0l-0.22.46c-0.06.11-.11,0.22-0.16,0.33l-0.22.51-0.07.16-3.44,8.17L391.12,779l-0.17.09-0.62.35-0.06,0-0.51.3-0.17.1-0.12.07h0l-0.11.07-1.08.69a45.32,45.32,0,0,0-7.91,6.39A41.37,41.37,0,0,0,374.3,795,39.23,39.23,0,0,0,369,811h0a39.17,39.17,0,0,0,1.88,16.68,41.34,41.34,0,0,0,4.29,8.95,45.39,45.39,0,0,0,6.4,7.91l0.86,0.85h0l0.09,0.09,0.16,0.15,0.61,0.55h0l0,0,0.54,0.47h0l0,0,6.68,5.78,1.68,8.72h0v0l0.14,0.7h0v0.07l0.15,0.7h0l0,0.09,0,0.17h0l0,0.12,0.32,1.21a45.36,45.36,0,0,0,3.64,9.47,41.33,41.33,0,0,0,5.6,8.2,39,39,0,0,0,30,13.36,41.4,41.4,0,0,0,9.84-1.34,45.25,45.25,0,0,0,9.47-3.62l1.11-.57h0l0.13-.07,0.15-.08h0l0,0,0.54-.31,0.14-.08,0.62-.37h0l0,0,7.57-4.57,8.81,1.11h0l0.43,0.05,0.36,0,0.5,0,0.24,0h0l0.35,0,1.18,0.07a45.15,45.15,0,0,0,10.14-.54,41.44,41.44,0,0,0,9.51-2.78,39.14,39.14,0,0,0,22-24.4,41.36,41.36,0,0,0,1.78-9.76,45.29,45.29,0,0,0-.53-10.14l-0.16-1c0-.13,0-0.25-0.06-0.38l0-.17h0v-0.05l-0.15-.7h0v-0.07l-0.16-.7h0v0l-2-8.61,3.68-7.84,0.11-.22,0.3-.65h0l0-.06,0.2-.45,0.11-.25,0.25-.62,0.07-.16,0.19-.49,0.08-.19a45.5,45.5,0,0,0,2.61-9.82A41.54,41.54,0,0,0,522,795.52Zm-17.46-17.36a29.41,29.41,0,0,1,7.33,12.69L499,789.77Zm-54.59-26.6a32.49,32.49,0,0,1,3.7,1.56,36.22,36.22,0,0,1,6.8,4.42h0l1,0.8h0l0.46,0.41h0l0.53,0.49,0.11,0.1,7.48,7A4.55,4.55,0,0,0,473,767.6l10.1,0.86,1.25,0.13,0.23,0a4.61,4.61,0,0,0,.65,0l0,0.12,0.34,0.05a36.64,36.64,0,0,1,7.86,2.1,33.12,33.12,0,0,1,3.58,1.67l-7.7,16.4-26.79-2.27-19.68-18.44Zm-17.24,53.8a35.78,35.78,0,0,0,23.8-5,35.76,35.76,0,0,0,12.15,21.08,35.75,35.75,0,0,0-16.22,18.06,35.78,35.78,0,0,0-22.25-9.92,36,36,0,0,0,3.39-11.94A35.55,35.55,0,0,0,432.66,805.37Zm-1.42-9.53,7.85-18.64L453.88,791a26.59,26.59,0,0,1-10.72,5A26.92,26.92,0,0,1,431.24,795.83Zm34.41,39.38a27,27,0,0,1,9.68-6.9l4.6,19.7-20-2.5A26.55,26.55,0,0,1,465.66,835.21Zm10.95-19.13a26.57,26.57,0,0,1-8-8.66A27,27,0,0,1,465.1,796l20.12,1.71Zm-43.19-65.65a29.78,29.78,0,0,1,7.31-.62l-5,11.76-9.31-8.72A30,30,0,0,1,433.41,750.43Zm-46.54,43.1a36.08,36.08,0,0,1,6.3-5.1l1-.62h0l0.12-.07,0,0,0.48-.28,0.59-.33,0.16-.09,9-4.95a4.55,4.55,0,0,0,2-2.22h0l4.05-9.62,0.05-.13,0.22-.5,0-.12,0.19-.44h0l0.57-1.13a36.09,36.09,0,0,1,4.4-6.8,33.19,33.19,0,0,1,2.74-2.94L432,770.54l-10.47,24.85-23.61,13-13.67-11.83A33,33,0,0,1,386.87,793.53Zm37.57,23.18A26.89,26.89,0,0,1,420.59,828l-15.33-13.25L423,805A26.67,26.67,0,0,1,424.44,816.7ZM378,811.88h0a29.72,29.72,0,0,1,1.68-7.15l9.67,8.36-11.2,6.17A29.59,29.59,0,0,1,378,811.88Zm26.63,57.6a36.39,36.39,0,0,1-2.91-7.6l-0.28-1.08h0l0-.09h0l-0.13-.63h0l-0.13-.68h0l-2-10.25a4.55,4.55,0,0,0-1.76-2.8l-7.62-6.59h0l-0.5-.44h0l-0.45-.41-0.06-.06h0L388,838a36.23,36.23,0,0,1-5.12-6.3,33.08,33.08,0,0,1-1.94-3.52l15.84-8.73,20.37,17.62,5.09,26.5-15.47,9.35A32.39,32.39,0,0,1,404.67,869.49Zm14.75,14.06a29.73,29.73,0,0,1-6.31-3.82L424,873.11l2.41,12.54A29.47,29.47,0,0,1,419.42,883.54Zm11.13-25-3.82-19.92a26.54,26.54,0,0,1,11.6,2.25,26.94,26.94,0,0,1,9.6,7.17ZM482.39,876a36.16,36.16,0,0,1-8.1.4l-1.18-.07h-0.25l-0.51,0h-0.18l-0.42,0h0l-10.36-1.3a4.55,4.55,0,0,0-3.18.79l-8.64,5.22h0l-0.62.37,0,0-0.48.27h0l0,0-1.09.56a36.33,36.33,0,0,1-7.59,2.94,32,32,0,0,1-3.93.75l-3.41-17.76,23.06-13.93,26.71,3.35,4.11,17.62A32.56,32.56,0,0,1,482.39,876Zm17.93-9.69a29.81,29.81,0,0,1-5.62,4.85l-2.91-12.47,12.73,1.6A29.87,29.87,0,0,1,500.32,866.33Zm12.33-62.21a36.37,36.37,0,0,1-2.11,7.84l-0.06.15-0.19.49,0,0.05-0.21.48-0.06.14-0.18.41h0l-0.3.65-0.06.14-4.35,9.27a4.55,4.55,0,0,0-.26,3.19l2.32,9.92h0l0.14,0.63h0l0.13,0.65h0l0,0.17,0,0.07,0.17,1a36.13,36.13,0,0,1,.43,8.1,32.65,32.65,0,0,1-.5,4l-18-2.26L483.45,823l11.46-24.42L513,800.09A32.42,32.42,0,0,1,512.65,804.12Z" transform="translate(-368.77 -740.66)"/><path class="cls-2" d="M544,753h16.85V869.38h62.29v15.67H544V753Z" transform="translate(-368.77 -740.66)"/><path class="cls-2" d="M697.95,823.15q0-11.17-6-16.26T676.2,801.8a67.44,67.44,0,0,0-15.77,1.76,71,71,0,0,0-13.61,4.7l-3.72-11.56A61.83,61.83,0,0,1,657.2,791a70.53,70.53,0,0,1,19.59-2.55q18.81,0,27.72,9.5t8.91,25.37v61.71H701.08L697.95,869q-2.16,3.53-4.6,6.76a24.67,24.67,0,0,1-6.17,5.68,34.25,34.25,0,0,1-8.81,4A42.39,42.39,0,0,1,666,887a34,34,0,0,1-11.36-1.86,27.14,27.14,0,0,1-9.3-5.48,25,25,0,0,1-6.27-8.91,31.28,31.28,0,0,1-2.25-12.34q0-16.26,11.07-24.19t30.46-7.93h19.59v-3.13Zm0,15.28H678.16q-12.34,0-18.81,5.29t-6.46,14.69q0,7.25,4.51,11.46A16.24,16.24,0,0,0,669,874.08a27.61,27.61,0,0,0,11.75-2.45,29.53,29.53,0,0,0,9.11-6.46,30.56,30.56,0,0,0,6-9,25.28,25.28,0,0,0,2.15-10.09v-7.64Z" transform="translate(-368.77 -740.66)"/><path class="cls-2" d="M758.87,806.5a50.21,50.21,0,0,1,4.21-6.27,33.48,33.48,0,0,1,5.68-5.68,30.62,30.62,0,0,1,7.25-4.21,26.32,26.32,0,0,1,9.11-1.86,22.13,22.13,0,0,1,5.68.29,27.37,27.37,0,0,1,3.92,1.08,11.71,11.71,0,0,1,3.13,1.76L793,808.07q-3.92-3.92-10.77-3.92-16.06,0-23.31,15.87v65H742.41V790.44h13.32Z" transform="translate(-368.77 -740.66)"/><path class="cls-2" d="M869.55,823.15q0-11.17-6-16.26T847.8,801.8A67.44,67.44,0,0,0,832,803.56a71,71,0,0,0-13.61,4.7l-3.72-11.56A61.83,61.83,0,0,1,828.8,791a70.53,70.53,0,0,1,19.59-2.55q18.8,0,27.72,9.5T885,823.35v61.71H872.68L869.55,869q-2.16,3.53-4.6,6.76a24.66,24.66,0,0,1-6.17,5.68,34.26,34.26,0,0,1-8.81,4A42.39,42.39,0,0,1,837.62,887a34,34,0,0,1-11.36-1.86,27.14,27.14,0,0,1-9.3-5.48,25,25,0,0,1-6.27-8.91,31.28,31.28,0,0,1-2.25-12.34q0-16.26,11.07-24.19T850,826.29h19.59v-3.13Zm0,15.28H849.76q-12.34,0-18.81,5.29t-6.46,14.69q0,7.25,4.51,11.46a16.24,16.24,0,0,0,11.56,4.21,27.6,27.6,0,0,0,11.75-2.45,29.54,29.54,0,0,0,9.11-6.46,30.57,30.57,0,0,0,6-9,25.27,25.27,0,0,0,2.15-10.09v-7.64Z" transform="translate(-368.77 -740.66)"/><path class="cls-2" d="M967.88,863.7l-28.21-63.27q-2.35-5.29-4.6-10.77a134.35,134.35,0,0,1-4.41-12.73h-0.39q1,8.81,1.27,16.26t0.29,11.56v80.31H915V753h20.37l31.15,70.33q3.92,8.42,6.27,14.59T976.7,848h0.39q1.57-3.92,3.92-10.09t6.27-14.59L1018.42,753h20.37v132h-16.85V804.74q0-4.11.29-11.56t1.27-16.26h-0.39q-2.16,7.25-4.41,12.73t-4.6,10.77L985.91,863.7h-18Z" transform="translate(-368.77 -740.66)"/><path class="cls-2" d="M1067,761.64a11,11,0,0,1,2.84-7.64q2.84-3.13,8.13-3.13t8.13,3.13a11.7,11.7,0,0,1,0,15.28q-2.84,3.14-8.13,3.13t-8.13-3.13A11,11,0,0,1,1067,761.64Zm19.2,123.41h-16.46V790.44h16.46v94.62Z" transform="translate(-368.77 -740.66)"/><path class="cls-2" d="M1132.62,885.05h-16.46V790.44h13.71l2.74,14.1a32.42,32.42,0,0,1,4.9-5.39,41.16,41.16,0,0,1,7.25-5.19,44.85,44.85,0,0,1,9.3-3.92,38.14,38.14,0,0,1,11.07-1.57q15.28,0,23.9,10.09t8.62,27.52v59H1181.6v-59q0-10.58-5.09-16.65t-14.3-6.07a33.56,33.56,0,0,0-16.95,4.31,40.72,40.72,0,0,0-12.63,11.17v66.21Z" transform="translate(-368.77 -740.66)"/><path class="cls-2" d="M1306.77,885.05h-13.32L1290.32,869a32,32,0,0,1-4.7,6.86,30.05,30.05,0,0,1-7,5.78,39,39,0,0,1-8.72,3.92,32.64,32.64,0,0,1-9.79,1.47,37.55,37.55,0,0,1-15.87-3.33,34.84,34.84,0,0,1-12.44-9.6,44.56,44.56,0,0,1-8-15.38,70.06,70.06,0,0,1-2.84-20.86,66.87,66.87,0,0,1,2.64-19.1,46.72,46.72,0,0,1,7.93-15.67,38.62,38.62,0,0,1,12.93-10.68,38.13,38.13,0,0,1,17.63-3.92,32.59,32.59,0,0,1,9.7,1.37,35.27,35.27,0,0,1,7.93,3.53,31,31,0,0,1,6.17,4.9,36.18,36.18,0,0,1,4.41,5.48V753h16.46v132Zm-16.46-67a35.31,35.31,0,0,0-11.46-10.77,27.57,27.57,0,0,0-14-3.92q-12.34,0-20.08,8.42T1237,837.65a51.52,51.52,0,0,0,2.15,16,30.12,30.12,0,0,0,5.78,10.68,21.81,21.81,0,0,0,8.23,6,25.06,25.06,0,0,0,9.5,1.86,23.9,23.9,0,0,0,10.28-2.35,26.56,26.56,0,0,0,8.81-6.76,35,35,0,0,0,6.17-10.58,38.53,38.53,0,0,0,2.35-13.81V818.06Z" transform="translate(-368.77 -740.66)"/><circle class="cls-2" cx="79.1" cy="79.2" r="8.96"/></svg>