<svg xmlns="http://www.w3.org/2000/svg" viewBox="0 0 623.62 255.12"><defs><style>.cls-1{fill:#fff;}.cls-2{fill:#ec0093;}.cls-3{fill:#828282;}</style></defs><title>lastminute</title><g id="BG"><rect class="cls-1" width="623.62" height="255.12"/></g><g id="Logo"><path class="cls-2" d="M576.07,139.44a11.74,11.74,0,0,0,2.78,1.4,12.5,12.5,0,0,0,4.51.74,12,12,0,0,0,5.07-1,10.66,10.66,0,0,0,3.74-2.83,12.34,12.34,0,0,0,2.32-4.33,18.4,18.4,0,0,0,.79-5.53,16.5,16.5,0,0,0-.94-5.76,12.41,12.41,0,0,0-2.65-4.33,11.42,11.42,0,0,0-4.08-2.73,14.17,14.17,0,0,0-5.27-.94,30.41,30.41,0,0,0-5.81.46,29.92,29.92,0,0,0-3.77,1v34.84h3.31Zm0-21.6a14.75,14.75,0,0,1,2.27-.48,27.14,27.14,0,0,1,3.95-.23,9,9,0,0,1,6.88,2.78q2.6,2.78,2.6,8a18.22,18.22,0,0,1-.46,4.15,9.74,9.74,0,0,1-1.48,3.41,7.18,7.18,0,0,1-2.67,2.29,9,9,0,0,1-4.1.84,10.75,10.75,0,0,1-2.24-.23,13.08,13.08,0,0,1-2-.59,10.67,10.67,0,0,1-1.6-.76,11,11,0,0,1-1.15-.76Zm-9-3.21h-3.31v23.13a11,11,0,0,1-2.19.46,28.27,28.27,0,0,1-4.08.25,10.29,10.29,0,0,1-3.54-.53,5.16,5.16,0,0,1-2.37-1.73,7.68,7.68,0,0,1-1.32-3.13,23.41,23.41,0,0,1-.41-4.74v-13.7h-3.31V129.4a21.3,21.3,0,0,0,.54,4.94,9.9,9.9,0,0,0,1.76,3.82,8,8,0,0,0,3.21,2.45,12.38,12.38,0,0,0,4.94.87,31.13,31.13,0,0,0,6.11-.51q2.49-.51,4-.92Zm-30.15,21a8.1,8.1,0,0,1-12.43,0,12.32,12.32,0,0,1-2.29-7.84,12.43,12.43,0,0,1,2.29-7.87,8.06,8.06,0,0,1,12.43,0,12.44,12.44,0,0,1,2.29,7.87,12.33,12.33,0,0,1-2.29,7.84m4.91-13.5a12.84,12.84,0,0,0-2.5-4.35,11.21,11.21,0,0,0-3.79-2.8,12.26,12.26,0,0,0-9.68,0,11.17,11.17,0,0,0-3.79,2.8,12.87,12.87,0,0,0-2.5,4.35,18.36,18.36,0,0,0,0,11.31,12.57,12.57,0,0,0,2.5,4.33,11.32,11.32,0,0,0,3.79,2.78,12.27,12.27,0,0,0,9.68,0,11.36,11.36,0,0,0,3.79-2.78,12.54,12.54,0,0,0,2.5-4.33,18.36,18.36,0,0,0,0-11.31m-34.05-7.46a24.41,24.41,0,0,0-3.51,1.15V141h3.31V117.89a9.45,9.45,0,0,1,1.71-.51,15.52,15.52,0,0,1,3.44-.31,18.84,18.84,0,0,1,3.28.23,7.37,7.37,0,0,1,1.66.43l.66-2.85a9.55,9.55,0,0,0-2-.51,17.88,17.88,0,0,0-3.08-.25,21.88,21.88,0,0,0-5.45.59m-12.53,20.1a9.22,9.22,0,0,1-2.88,1.53,12.12,12.12,0,0,1-4.1.66,8.76,8.76,0,0,1-3-.53,6.91,6.91,0,0,1-2.62-1.71,8.7,8.7,0,0,1-1.86-3,12.43,12.43,0,0,1-.71-4.46,13.1,13.1,0,0,1,.61-4.1,9.27,9.27,0,0,1,1.78-3.21,8,8,0,0,1,2.83-2.09,9.25,9.25,0,0,1,3.79-.74,25.4,25.4,0,0,1,3.92.23,19.81,19.81,0,0,1,2.24.48Zm0,4.84q0,4.38-2.11,6.19t-6.8,1.81a22.43,22.43,0,0,1-4.25-.41,15.11,15.11,0,0,1-3.34-1l-.66,3a25,25,0,0,0,3.54.89,25.39,25.39,0,0,0,4.61.38q6.16,0,9.22-2.52t3.06-8.43v-24q-1.43-.46-3.64-.94a28.65,28.65,0,0,0-5.88-.48,13.13,13.13,0,0,0-5.22,1,11.21,11.21,0,0,0-3.92,2.75,12.26,12.26,0,0,0-2.47,4.15,15.15,15.15,0,0,0-.87,5.2,15.86,15.86,0,0,0,1,5.88,11,11,0,0,0,2.57,3.95,9.9,9.9,0,0,0,3.74,2.24,13.88,13.88,0,0,0,4.43.71,13.2,13.2,0,0,0,2.57-.23,11.69,11.69,0,0,0,2-.59,14.27,14.27,0,0,0,1.5-.69,5.75,5.75,0,0,0,.92-.58Z"/><path class="cls-3" d="M449.65,141h7.59V126.35q0-1.48-.1-2.78a11.68,11.68,0,0,0-.46-2.47,6.61,6.61,0,0,1,1.81-.76,6.82,6.82,0,0,1,1.71-.31,3.5,3.5,0,0,1,3.23,1.53q.94,1.53.94,5.2V141H472V125.84a24.9,24.9,0,0,0-.46-5,9.54,9.54,0,0,0-1.68-3.87,8,8,0,0,0-3.29-2.52,13.38,13.38,0,0,0-5.27-.89,14.21,14.21,0,0,0-7.64,2.5,10.63,10.63,0,0,0-3-1.76,12.62,12.62,0,0,0-4.71-.74q-1.48,0-3,.13t-3,.36q-1.45.23-2.75.51c-.86.19-1.62.36-2.27.53V141h7.59V120.29c.47-.07,1-.13,1.48-.18s1-.08,1.48-.08a3.49,3.49,0,0,1,3.23,1.53q.94,1.53.94,5.2ZM422,133.1a4.54,4.54,0,0,1-4,2.06,4.61,4.61,0,0,1-4-2.06,9.67,9.67,0,0,1-1.43-5.58,9.42,9.42,0,0,1,1.43-5.53,4.65,4.65,0,0,1,4-2,4.58,4.58,0,0,1,4,2,9.54,9.54,0,0,1,1.4,5.53,9.79,9.79,0,0,1-1.4,5.58m8.18-11.33a12.93,12.93,0,0,0-2.7-4.43,12.09,12.09,0,0,0-4.15-2.85,13.6,13.6,0,0,0-5.32-1,13.44,13.44,0,0,0-5.27,1,12.33,12.33,0,0,0-4.18,2.85,13,13,0,0,0-2.75,4.43,16,16,0,0,0-1,5.76,16.6,16.6,0,0,0,1,5.78,13.16,13.16,0,0,0,2.7,4.48,11.9,11.9,0,0,0,4.15,2.88,13.7,13.7,0,0,0,5.37,1,13.84,13.84,0,0,0,5.43-1,11.91,11.91,0,0,0,4.15-2.88,12.55,12.55,0,0,0,2.65-4.48,17.42,17.42,0,0,0,.92-5.78,16.39,16.39,0,0,0-1-5.76m-47.75,11.38a11.63,11.63,0,0,0,2.5,4.46,11.86,11.86,0,0,0,4.35,3,16.48,16.48,0,0,0,6.32,1.1,21.85,21.85,0,0,0,4.38-.41,17.82,17.82,0,0,0,3.31-1l-1.07-6.21a12.5,12.5,0,0,1-2.9.81,18.5,18.5,0,0,1-3,.25q-3.87,0-5.43-2a8.9,8.9,0,0,1-1.55-5.6,8.6,8.6,0,0,1,1.66-5.5,6,6,0,0,1,5-2.09,12.28,12.28,0,0,1,2.85.3,19.25,19.25,0,0,1,2.34.71l1.58-6.06a19,19,0,0,0-3.46-1.1,18.78,18.78,0,0,0-3.92-.38,14.29,14.29,0,0,0-5.81,1.12,12.81,12.81,0,0,0-7.06,7.51,15.8,15.8,0,0,0-.94,5.48,18.92,18.92,0,0,0,.79,5.58m-3.51.31a5.11,5.11,0,0,0-6.57,0,4.92,4.92,0,0,0,0,7,5.11,5.11,0,0,0,6.57,0,4.92,4.92,0,0,0,0-7m-27.68-8.58a10.93,10.93,0,0,1,.48-1.91,5.14,5.14,0,0,1,.94-1.66,4.54,4.54,0,0,1,1.53-1.15,5.1,5.1,0,0,1,2.19-.43,4.82,4.82,0,0,1,2.22.46,4.61,4.61,0,0,1,1.48,1.17,4.72,4.72,0,0,1,.87,1.63,7.8,7.8,0,0,1,.33,1.88Zm-7,8.41a11.65,11.65,0,0,0,2.6,4.41,12.25,12.25,0,0,0,4.43,2.93,16.88,16.88,0,0,0,6.29,1.07,26.59,26.59,0,0,0,2.85-.15q1.42-.15,2.68-.38a21.5,21.5,0,0,0,2.27-.54A10.4,10.4,0,0,0,367,140l-1-6.16a15.33,15.33,0,0,1-3.28.94,21.85,21.85,0,0,1-4.1.38,8.8,8.8,0,0,1-5.2-1.38,5,5,0,0,1-2.19-3.72H368.4q0-.61.1-1.4t0-1.45q0-6.77-3.31-10.26a11.84,11.84,0,0,0-9-3.49,12.83,12.83,0,0,0-4.76.92,12,12,0,0,0-4.1,2.7,13.37,13.37,0,0,0-2.88,4.46,16.36,16.36,0,0,0-1.1,6.24,17.47,17.47,0,0,0,.84,5.5M324.34,130a21.46,21.46,0,0,0,.48,4.74,8.71,8.71,0,0,0,1.71,3.64,8.09,8.09,0,0,0,3.26,2.34,13.57,13.57,0,0,0,5.15.84,17.81,17.81,0,0,0,4.13-.41,21.33,21.33,0,0,0,3.06-1L341,134.29a13,13,0,0,1-2.37.64,14.52,14.52,0,0,1-2.52.23q-2.55,0-3.39-1.43a7.5,7.5,0,0,1-.84-3.82v-9.42H341v-6.32h-9.12v-7.9l-7.59,1.22Zm-4.84-15.84h-7.59v20.68c-.48.07-1,.13-1.63.18s-1.19.08-1.73.08q-2.65,0-3.62-1.63a10.86,10.86,0,0,1-1-5.3v-14h-7.59V129.1a21.15,21.15,0,0,0,.56,5,10,10,0,0,0,1.88,3.95,8.61,8.61,0,0,0,3.59,2.57,15.23,15.23,0,0,0,5.68.92,41,41,0,0,0,6.42-.48,42.36,42.36,0,0,0,5-1ZM268.67,141h7.59V120.29q.71-.1,1.63-.18c.61,0,1.19-.08,1.73-.08q2.65,0,3.62,1.53t1,5.2V141h7.59V125.84a20.62,20.62,0,0,0-.56-5,9.82,9.82,0,0,0-1.88-3.87,8.55,8.55,0,0,0-3.59-2.52,15.64,15.64,0,0,0-5.68-.89,41.17,41.17,0,0,0-6.42.48,42.46,42.46,0,0,0-5,1Zm-5.73-37.82a4.83,4.83,0,0,0-6.37,0,4.68,4.68,0,0,0,0,6.57,4.83,4.83,0,0,0,6.37,0,4.68,4.68,0,0,0,0-6.57m.64,11H256V141h7.59ZM228.83,141h7.59V126.35q0-1.48-.1-2.78a11.68,11.68,0,0,0-.46-2.47,6.58,6.58,0,0,1,1.81-.76,6.81,6.81,0,0,1,1.71-.31,3.5,3.5,0,0,1,3.23,1.53q.94,1.53.94,5.2V141h7.59V125.84a25.05,25.05,0,0,0-.46-5A9.57,9.57,0,0,0,249,117a8,8,0,0,0-3.28-2.52,13.4,13.4,0,0,0-5.27-.89,14.21,14.21,0,0,0-7.64,2.5,10.62,10.62,0,0,0-3-1.76,12.64,12.64,0,0,0-4.71-.74q-1.48,0-3,.13t-3,.36q-1.45.23-2.75.51t-2.27.53V141h7.59V120.29c.47-.07,1-.13,1.48-.18s1-.08,1.48-.08a3.5,3.5,0,0,1,3.23,1.53q.94,1.53.94,5.2Zm-36.06-11a21.46,21.46,0,0,0,.48,4.74,8.72,8.72,0,0,0,1.71,3.64,8.08,8.08,0,0,0,3.26,2.34,13.58,13.58,0,0,0,5.14.84,17.82,17.82,0,0,0,4.13-.41,21.37,21.37,0,0,0,3.06-1l-1.07-5.91a13,13,0,0,1-2.37.64,14.53,14.53,0,0,1-2.52.23q-2.55,0-3.39-1.43a7.48,7.48,0,0,1-.84-3.82v-9.42h9.12v-6.32h-9.12v-7.9l-7.59,1.22Zm-18.23,5.07a24.84,24.84,0,0,1-4-1.2L169.29,140a23.78,23.78,0,0,0,9.22,1.63q5.45,0,8.43-2a6.79,6.79,0,0,0,3-6,10.26,10.26,0,0,0-.38-2.95,6,6,0,0,0-1.32-2.31,9.87,9.87,0,0,0-2.57-1.94,31.05,31.05,0,0,0-4.13-1.82q-1.22-.46-2-.85a8.53,8.53,0,0,1-1.25-.72,1.75,1.75,0,0,1-.61-.69,2.05,2.05,0,0,1-.15-.81q0-2,3.56-2a15.66,15.66,0,0,1,3.49.36,27.74,27.74,0,0,1,2.88.82l1.32-5.91a22,22,0,0,0-3.57-.94,24.71,24.71,0,0,0-4.69-.43,12.19,12.19,0,0,0-7.69,2.19,7.16,7.16,0,0,0-2.8,6,8.75,8.75,0,0,0,.56,3.31,6.88,6.88,0,0,0,1.58,2.37,9.47,9.47,0,0,0,2.47,1.71,34.24,34.24,0,0,0,3.24,1.38,21.35,21.35,0,0,1,3.41,1.55,1.93,1.93,0,0,1,1.12,1.6,1.58,1.58,0,0,1-.86,1.58,7.58,7.58,0,0,1-3,.41,19.27,19.27,0,0,1-4-.43m-22.8-21.49q-1.3.13-2.47.3t-2.16.41q-1,.23-1.66.43l1,6.11a16.35,16.35,0,0,1,3.26-.79,26,26,0,0,1,3.82-.28q2.9,0,4.07,1.17a4.2,4.2,0,0,1,1.17,3.11v.71a11.76,11.76,0,0,0-1.86-.33,24.23,24.23,0,0,0-2.62-.13,20.24,20.24,0,0,0-4.23.43,11.38,11.38,0,0,0-3.62,1.4,7.25,7.25,0,0,0-2.52,2.6,7.81,7.81,0,0,0-.94,4,9.4,9.4,0,0,0,.82,4.13,6.86,6.86,0,0,0,2.34,2.73,10.23,10.23,0,0,0,3.64,1.5,22.29,22.29,0,0,0,4.71.46,43.57,43.57,0,0,0,7-.48q2.9-.48,4.53-.84V124.41a17.11,17.11,0,0,0-.56-4.53,8.08,8.08,0,0,0-1.91-3.46,8.71,8.71,0,0,0-3.59-2.19,17.56,17.56,0,0,0-5.6-.76q-1.32,0-2.62.13M151.69,135a2.6,2.6,0,0,1-1.2-2.47,2.69,2.69,0,0,1,.41-1.53,2.84,2.84,0,0,1,1.12-1,5.29,5.29,0,0,1,1.66-.48,15.18,15.18,0,0,1,2-.13,15.43,15.43,0,0,1,1.68.1q.92.1,1.37.2v5.76a14.57,14.57,0,0,1-1.63.15q-1,.05-2.14.05a6.61,6.61,0,0,1-3.29-.69m-11,.23a6.84,6.84,0,0,1-2.19-.46,3.09,3.09,0,0,1-1.25-.92,3.17,3.17,0,0,1-.59-1.38,10,10,0,0,1-.15-1.83V101.44l-7.59,1.22v29.49a15.67,15.67,0,0,0,.43,3.85,6.16,6.16,0,0,0,1.63,2.9,8,8,0,0,0,3.26,1.86,19,19,0,0,0,5.37.71Z"/><rect class="cls-2" x="28.35" y="87.34" width="80.44" height="80.44"/><path class="cls-1" d="M89.67,113.72a7.21,7.21,0,0,0,0-10.19,8.51,8.51,0,0,0-7.83-2.45,33.79,33.79,0,0,0-7.94,2.82c-1.74.77-3.53,1.57-5.52,2.31a23.23,23.23,0,0,1-3.62,1.17l4.13,4.13L70.2,111c2.13-.8,4.08-1.66,5.8-2.43,5.89-2.61,8.12-3.36,10-1.44a2.06,2.06,0,0,1,0,2.91l-9.28,9.28L80.39,123ZM100,159l-3.7-3.69a6.7,6.7,0,0,1-8.24-1L69.47,135.74a6.44,6.44,0,0,0-9.1,0L51.09,145a2.06,2.06,0,0,1-2.91,0c-1.92-1.92-1.17-4.15,1.44-10,.76-1.72,1.63-3.67,2.43-5.8,1.17-3.13,2.1-5.6,1.16-8.26-.79-2.24-2.63-4.08-6.31-7.75l-.36-.36L42.72,109a9.78,9.78,0,0,1-2.45-9.73l-3.95-3.95A15,15,0,0,0,39,112.5h0l4,4,.36.36c2.93,2.93,4.69,4.69,5.09,5.82.27.76,0,1.85-1.13,4.74-.75,2-1.54,3.78-2.31,5.52a33.77,33.77,0,0,0-2.82,7.93,8.51,8.51,0,0,0,2.45,7.83,7.21,7.21,0,0,0,10.19,0L64,139.38a1.29,1.29,0,0,1,1.82,0L84.4,157.94A11.85,11.85,0,0,0,100,159"/></g></svg>