<?xml version="1.0" encoding="UTF-8" standalone="no"?>
<svg
   xmlns:dc="http://purl.org/dc/elements/1.1/"
   xmlns:cc="http://creativecommons.org/ns#"
   xmlns:rdf="http://www.w3.org/1999/02/22-rdf-syntax-ns#"
   xmlns:svg="http://www.w3.org/2000/svg"
   xmlns="http://www.w3.org/2000/svg"
   viewBox="0 0 716.66669 205.556"
   height="205.556"
   width="716.66669"
   xml:space="preserve"
   id="svg2"
   version="1.1"><metadata
     id="metadata8"><rdf:RDF><cc:Work
         rdf:about=""><dc:format>image/svg+xml</dc:format><dc:type
           rdf:resource="http://purl.org/dc/dcmitype/StillImage" /></cc:Work></rdf:RDF></metadata><defs
     id="defs6"><clipPath
       id="clipPath18"
       clipPathUnits="userSpaceOnUse"><path
         id="path16"
         d="M 0,154.167 H 537.5 V 0 H 0 Z" /></clipPath></defs><g
     transform="matrix(1.3333333,0,0,-1.3333333,0,205.556)"
     id="g10"><g
       id="g12"><g
         clip-path="url(#clipPath18)"
         id="g14"><g
           transform="translate(136.3813,63.3438)"
           id="g20"><path
             id="path22"
             style="fill:#4bade5;fill-opacity:1;fill-rule:nonzero;stroke:none"
             d="m 0,0 -0.025,0.031 -0.069,-0.058 c -1.292,-1.086 -2.798,-2.153 -4.478,-3.168 -3.066,-1.866 -5.523,-2.242 -7.269,-0.342 -0.759,0.834 -1.13,2.289 -1.13,4.447 v 24.547 c 0,0.77 -0.406,1.168 -1.316,1.283 -2.904,0.471 -24.013,0.055 -29.723,-1.566 -4.034,-1.149 -7.384,-2.738 -9.957,-4.731 -2.573,-1.982 -4.502,-4.408 -5.741,-7.205 -1.237,-2.806 -1.863,-5.916 -1.863,-9.24 0,-6.207 1.319,-11.039 3.919,-14.355 2.58,-3.293 6.221,-4.961 10.816,-4.961 2.275,0 4.195,0.341 5.704,1.017 1.526,0.684 2.836,1.535 3.898,2.533 1.076,1.014 1.999,2.102 2.743,3.233 0.762,1.166 1.488,2.197 2.156,3.06 l 0.406,0.524 0.149,-0.647 c 0.254,-1.095 0.616,-2.236 1.08,-3.39 0.443,-1.121 1.111,-2.16 1.982,-3.09 0.856,-0.924 1.947,-1.707 3.243,-2.326 1.28,-0.608 2.912,-0.914 4.846,-0.914 3.718,0 7.393,0.894 10.922,2.658 3.5,1.746 6.794,4.408 9.793,7.904 v 0.014 l 0.141,0.24 -0.04,4.315 C 0.187,-0.027 0.161,0 0,0 m -32.464,-0.406 c -1.087,-1.086 -2.126,-1.848 -3.086,-2.26 -0.968,-0.414 -1.847,-0.623 -2.615,-0.623 -0.423,0 -0.98,0.066 -1.656,0.205 -0.723,0.145 -1.463,0.572 -2.2,1.273 -0.727,0.692 -1.354,1.739 -1.87,3.11 -0.508,1.357 -0.767,3.271 -0.767,5.689 0,4.848 1.071,8.393 3.179,10.533 2.109,2.149 5.068,3.237 8.792,3.237 h 0.315 z" /></g><g
           transform="translate(138.7695,98.6426)"
           id="g24"><path
             id="path26"
             style="fill:#4bade5;fill-opacity:1;fill-rule:nonzero;stroke:none"
             d="m 0,0 c 0.967,-0.773 2.11,-1.395 3.393,-1.842 2.639,-0.928 5.758,-0.887 8.214,0 1.261,0.449 2.386,1.071 3.346,1.842 0.96,0.768 1.721,1.672 2.263,2.691 0.537,1.008 0.809,2.098 0.809,3.243 0,1.138 -0.272,2.23 -0.809,3.242 -0.543,1.021 -1.303,1.926 -2.263,2.689 -0.957,0.774 -2.085,1.392 -3.346,1.845 -1.253,0.451 -2.644,0.681 -4.13,0.681 -1.42,0 -2.794,-0.23 -4.081,-0.681 C 2.107,13.259 0.967,12.639 0,11.865 -0.957,11.102 -1.719,10.197 -2.261,9.175 -2.799,8.16 -3.071,7.068 -3.071,5.934 c 0,-1.141 0.272,-2.231 0.81,-3.243 C -1.719,1.672 -0.957,0.768 0,0" /></g><g
           transform="translate(169.1543,63.625)"
           id="g28"><path
             id="path30"
             style="fill:#4bade5;fill-opacity:1;fill-rule:nonzero;stroke:none"
             d="m 0,0 c -1.382,-1.109 -3.371,-2.455 -5.052,-3.475 -3.088,-1.873 -5.572,-2.238 -7.231,-0.339 -0.72,0.83 -1.072,2.283 -1.072,4.443 v 22.445 c 0,0.461 0.002,1.367 -0.373,2.155 -0.45,0.953 -1.282,1.416 -2.544,1.416 h -13.657 c -1.933,0 -2.913,-1.202 -2.913,-3.571 l -0.014,-23.543 c 0,-1.64 0.182,-3.379 0.543,-5.168 0.355,-1.785 0.98,-3.445 1.853,-4.937 0.865,-1.475 2.069,-2.697 3.582,-3.627 1.504,-0.928 3.48,-1.399 5.866,-1.399 3.718,0 7.395,0.895 10.921,2.657 3.536,1.769 7.683,5.131 10.625,8.668 L 0.186,-0.187 C 0.186,-0.027 0.161,0 0,0" /></g><g
           transform="translate(70.2954,64.8555)"
           id="g32"><path
             id="path34"
             style="fill:#4bade5;fill-opacity:1;fill-rule:nonzero;stroke:none"
             d="m 0,0 c -1.107,1.658 -2.514,3.148 -4.178,4.422 -1.668,1.275 -3.429,2.357 -5.235,3.211 -1.831,0.865 -3.212,1.529 -4.141,1.996 -2.318,1.158 -3.849,2.277 -4.68,3.42 -0.879,1.205 -0.903,2.273 -0.078,3.17 0.637,0.638 1.589,1.08 2.834,1.324 1.221,0.236 2.589,0.305 4.103,0.203 1.494,-0.1 3.071,-0.369 4.683,-0.805 1.607,-0.435 3.104,-1.066 4.451,-1.871 0.356,-0.066 0.401,-0.013 0.401,0.172 0,0 0.012,4.789 -0.019,4.903 0,0.003 -0.002,0.005 -0.003,0.007 -0.023,0.059 -0.059,0.088 -0.14,0.153 -1.36,0.935 -2.923,1.771 -4.711,2.519 -1.809,0.756 -3.787,1.371 -5.884,1.83 -2.143,0.428 -4.531,0.643 -7.1,0.643 l -0.563,-0.002 c -2.789,-0.033 -5.46,-0.465 -7.944,-1.281 -2.474,-0.817 -4.602,-2.102 -6.327,-3.825 -1.708,-1.709 -2.706,-4.119 -2.963,-7.16 -0.124,-1.861 0.364,-3.617 1.452,-5.213 1.116,-1.634 2.487,-3.125 4.084,-4.427 1.617,-1.321 3.315,-2.502 5.052,-3.516 1.759,-1.031 3.174,-1.883 4.238,-2.547 1.08,-0.674 1.917,-1.306 2.49,-1.879 0.582,-0.582 1,-1.125 1.244,-1.613 0.254,-0.51 0.346,-0.982 0.273,-1.406 -0.078,-0.422 -0.271,-0.785 -0.571,-1.086 -0.699,-0.703 -1.823,-1.164 -3.34,-1.371 -1.476,-0.201 -3.093,-0.153 -4.814,0.152 -1.704,0.297 -3.466,0.84 -5.238,1.611 -1.736,0.75 -3.257,1.735 -4.529,2.92 -0.015,0.018 -0.032,0.032 -0.051,0.043 -0.01,0.01 -0.042,0.03 -0.049,0.03 -0.028,0.009 -0.056,0.017 -0.088,0.017 -0.049,0 -0.091,-0.017 -0.131,-0.043 -0.007,-0.004 -0.014,-0.008 -0.019,-0.013 -0.022,-0.016 -0.04,-0.036 -0.055,-0.057 -10e-4,-0.004 -0.004,-0.008 -0.007,-0.012 -0.009,-0.017 -0.017,-0.035 -0.023,-0.055 -0.009,-0.029 -0.014,-0.048 -0.014,-0.048 v -5.084 c 0,-0.063 0.042,-0.133 0.118,-0.209 1.303,-1.241 3.094,-2.45 5.32,-3.594 2.23,-1.149 4.792,-2.063 7.611,-2.717 2.347,-0.523 4.945,-0.67 7.742,-0.443 2.785,0.228 5.462,0.828 7.953,1.777 2.483,0.947 4.667,2.287 6.492,3.984 1.811,1.68 2.958,3.747 3.407,6.135 C 1.437,-3.521 1.084,-1.627 0,0" /></g><g
           transform="translate(201.1699,59.4746)"
           id="g36"><path
             id="path38"
             style="fill:#4bade5;fill-opacity:1;fill-rule:nonzero;stroke:none"
             d="m 0,0 c -0.001,0.004 -0.005,0.008 -0.006,0.012 -0.015,0.021 -0.032,0.041 -0.055,0.056 -0.005,0.006 -0.011,0.01 -0.018,0.014 -0.04,0.025 -0.082,0.043 -0.131,0.043 h -0.004 -0.002 c -0.03,0 -0.059,-0.006 -0.087,-0.018 -0.007,0 -0.04,-0.019 -0.05,-0.029 -0.018,-0.012 -0.037,-0.025 -0.049,-0.041 -0.257,-0.24 -0.532,-0.465 -0.807,-0.687 -0.225,-0.178 -0.469,-0.36 -0.729,-0.545 -0.015,-0.01 -0.031,-0.022 -0.045,-0.032 -0.269,-0.189 -0.553,-0.378 -0.847,-0.56 -0.194,-0.117 -0.39,-0.234 -0.59,-0.346 -0.26,-0.143 -0.52,-0.28 -0.781,-0.401 -0.034,-0.016 -0.069,-0.031 -0.102,-0.049 -0.395,-0.178 -0.8,-0.361 -1.209,-0.535 -0.6,-0.246 -1.199,-0.467 -1.795,-0.658 -1.771,-0.498 -3.398,-0.135 -4.478,1.037 -0.387,0.418 -0.764,1.199 -1.037,2.151 0.005,-0.006 0.011,-0.011 0.016,-0.016 -0.254,0.86 -0.424,1.866 -0.424,2.888 0,0 -1.87,44.271 -1.75,45.57 0.015,0.159 0.032,0.313 0.048,0.47 0.016,0.15 0.031,0.3 0.046,0.449 v 10e-4 c 0.821,7.962 2.415,14.204 10.726,15.33 2.35,3.27 5.48,5.661 8.26,7.25 -6.411,0.975 -13.056,-0.107 -18.003,-2.175 -0.788,-0.326 -1.536,-0.676 -2.23,-1.05 -9.21,-4.97 -13.056,-12.88 -14.665,-20.042 -1.158,-5.145 -1.162,-9.906 -1.162,-12.912 -0.003,-0.059 -0.003,-0.125 -0.006,-0.185 -0.009,-0.135 -0.018,-0.266 -0.018,-0.418 L -32.025,16.606 -32.06,2.654 c 0,-1.05 0.085,-2.147 0.238,-3.272 0.081,-0.6 0.175,-1.205 0.299,-1.82 0.137,-0.693 0.329,-1.361 0.549,-2.014 0.133,-0.398 0.282,-0.786 0.446,-1.168 0.249,-0.577 0.519,-1.143 0.834,-1.68 0.852,-1.455 2.04,-2.658 3.529,-3.574 1.478,-0.914 3.426,-1.379 5.776,-1.379 0.363,0 2.16,0.014 2.16,0.014 1.65,0.002 3.216,0.146 4.691,0.433 0.216,0.032 0.398,0.065 0.526,0.1 0.022,0.004 0.042,0.012 0.065,0.018 2.677,0.625 5.115,1.492 7.26,2.566 0.093,0.047 0.196,0.086 0.288,0.135 2.225,1.142 4.016,2.353 5.32,3.59 0.075,0.078 0.116,0.148 0.116,0.21 v 5.083 c 0,0 -0.004,0.022 -0.013,0.049 C 0.019,-0.035 0.011,-0.018 0,0" /></g><g
           transform="translate(319.9004,119.1689)"
           id="g40"><path
             id="path42"
             style="fill:#4bade5;fill-opacity:1;fill-rule:nonzero;stroke:none"
             d="m 0,0 c -6.67,-3.65 -14.851,-5.47 -23.83,-5.47 -5.83,0 -12.011,0.77 -18.311,2.3 -3.559,0.86 -6.099,1.76 -9.859,3.22 -12.541,4.9 -29.121,11.54 -44.63,11.54 -2,0 -3.991,-0.11 -5.94,-0.35 0,0 -0.54,-0.06 -0.77,-0.1 -0.281,-0.04 -0.801,-0.13 -0.801,-0.13 -1.519,-0.25 -2.509,-0.44 -4.049,-0.85 -2.59,-0.68 -11.23,-4.599 -13.65,-12.47 -0.42,-1.32 -0.65,-2.76 -0.65,-4.31 0,-7.87 6.409,-14.28 14.28,-14.28 7.56,0 14.7,5.43 14.7,14.16 0,2.81 -0.611,5.18 -1.93,7.36 -1.679,1.069 -6.47,-0.05 -7.98,-0.43 1.529,-1.51 3.08,-3.94 3.08,-7.629 0,-4.181 -3.4,-7.581 -7.58,-7.581 -2.181,0 -4.27,0.97 -5.721,2.66 -0.219,0.26 -0.349,0.41 -0.469,0.56 -0.14,0.21 -0.261,0.44 -0.38,0.66 -0.111,0.19 -0.17,0.3 -0.22,0.4 -0.52,1.07 -0.79,2.18 -0.79,3.301 0,0.939 0.149,1.849 0.43,2.719 1.65,5.18 7.4,9.491 16.61,9.491 0.6,0 1.22,-0.021 1.859,-0.061 10.58,-0.64 20.27,-2.78 28.52,-5.55 5.831,-1.96 20.671,-7.62 24.78,-8.72 6.051,-1.71 13.62,-3.669 21.28,-3.669 0.271,0 0.531,0.009 0.791,0.009 9.7,0.18 22,3.13 21.23,13.22" /></g><g
           transform="translate(430.7187,63.3945)"
           id="g44"><path
             id="path46"
             style="fill:#4bade5;fill-opacity:1;fill-rule:nonzero;stroke:none"
             d="m 0,0 -0.025,0.037 -0.071,-0.062 c -1.281,-1.079 -3.011,-2.313 -4.697,-3.338 -3.082,-1.867 -5.543,-2.239 -7.27,-0.342 -0.763,0.832 -1.132,2.287 -1.132,4.447 v 23.219 c 0,0.771 -0.407,1.168 -1.321,1.285 -2.898,0.469 -5.591,0.836 -8.013,1.094 -8.487,0.902 -15.992,0.287 -21.707,-1.336 -4.03,-1.147 -7.379,-2.736 -9.959,-4.729 -2.575,-1.988 -4.5,-4.412 -5.731,-7.205 -1.24,-2.789 -1.867,-5.898 -1.867,-9.24 0,-6.209 1.318,-11.041 3.916,-14.355 2.582,-3.293 6.223,-4.961 10.814,-4.961 2.274,0 4.192,0.341 5.7,1.017 1.523,0.682 2.838,1.533 3.904,2.533 1.078,1.016 2,2.106 2.744,3.233 0.791,1.207 1.498,2.207 2.152,3.06 l 0.405,0.524 0.15,-0.645 c 0.26,-1.109 0.623,-2.25 1.082,-3.392 0.447,-1.123 1.117,-2.162 1.981,-3.09 0.879,-0.943 1.939,-1.705 3.246,-2.326 1.277,-0.608 2.908,-0.914 4.845,-0.914 3.719,0 7.393,0.894 10.924,2.656 3.502,1.75 7.02,4.58 10.016,8.076 v 0.006 l 0.133,0.24 -0.035,4.322 C 0.184,-0.025 0.158,0 0,0 m -32.691,-0.576 c -1.077,-1.08 -2.114,-1.84 -3.086,-2.26 -0.965,-0.414 -1.846,-0.623 -2.616,-0.623 -0.416,0 -0.976,0.068 -1.656,0.205 -0.719,0.147 -1.455,0.574 -2.197,1.277 -0.731,0.692 -1.359,1.739 -1.869,3.11 -0.512,1.355 -0.77,3.267 -0.77,5.687 0,4.846 1.069,8.389 3.18,10.534 2.111,2.146 5.066,3.234 8.791,3.234 h 0.314 z" /></g><g
           transform="translate(369.9043,63.2266)"
           id="g48"><path
             id="path50"
             style="fill:#4bade5;fill-opacity:1;fill-rule:nonzero;stroke:none"
             d="m 0,0 c -1.389,-1.111 -2.893,-2.178 -4.576,-3.195 -3.072,-1.869 -5.57,-2.239 -7.221,-0.336 -0.724,0.828 -1.074,2.279 -1.074,4.441 l -0.024,22.445 c 0,0.461 0.002,1.368 -0.371,2.157 -0.451,0.953 -1.285,1.414 -2.547,1.414 h -13.656 c -1.933,0 -2.914,-1.201 -2.914,-3.571 v -8.646 h 0.008 V -0.354 l -0.141,-0.093 c -0.8,-0.537 -1.789,-1.137 -2.961,-1.803 -1.179,-0.678 -2.332,-1.143 -3.421,-1.383 -1.133,-0.244 -2.104,-0.17 -2.901,0.229 -0.851,0.422 -1.269,1.443 -1.269,3.117 v 15.049 8.607 c 0,0.459 0.004,1.361 -0.37,2.149 -0.449,0.947 -1.277,1.408 -2.535,1.408 h -13.595 c -1.924,0 -2.903,-1.197 -2.903,-3.557 V 14.762 -1.783 c 0,-0.844 0.117,-2.051 0.346,-3.588 0.221,-1.508 0.76,-3.029 1.605,-4.527 0.836,-1.481 2.047,-2.79 3.596,-3.885 1.533,-1.086 3.619,-1.635 6.197,-1.635 3.315,0 6.311,0.807 8.905,2.397 2.619,1.599 5.453,3.783 8.424,6.488 0.125,0.127 0.33,0.314 0.603,0.553 0.256,0.228 0.451,0.404 0.58,0.533 l 0.428,0.431 0.101,-0.595 c 0.194,-1.092 0.54,-2.225 1.028,-3.371 0.484,-1.131 1.172,-2.172 2.035,-3.096 0.861,-0.93 1.951,-1.711 3.242,-2.326 1.283,-0.608 2.914,-0.914 4.848,-0.914 3.719,0 7.392,0.894 10.924,2.658 3.539,1.767 6.822,4.457 9.761,7.99 l 0.03,4.483 C 0.182,-0.027 0.156,0 0,0" /></g><g
           transform="translate(465.6562,89.7813)"
           id="g52"><path
             id="path54"
             style="fill:#4bade5;fill-opacity:1;fill-rule:nonzero;stroke:none"
             d="m 0,0 c 0,0.008 -0.123,0.061 -0.121,0.064 -0.402,0.161 -0.565,0.127 -0.854,0.127 -1.082,0 -2.207,-0.191 -3.341,-0.57 -1.465,-0.49 -2.903,-1.166 -4.27,-2.014 -1.389,-0.857 -2.697,-1.836 -3.894,-2.906 -1.233,-1.099 -2.317,-2.15 -3.219,-3.121 l -0.594,-0.748 0.012,6.1 c 0,0.445 0.002,1.318 -0.358,2.076 -0.433,0.918 -1.236,1.363 -2.453,1.363 h -13.146 c -1.864,0 -2.807,-1.156 -2.807,-3.439 v -2.836 -5.489 -18.234 -5.547 -3.121 c 0,-0.463 -0.004,-1.369 0.371,-2.16 0.451,-0.957 1.287,-1.418 2.553,-1.418 h 13.685 c 1.94,0 2.922,1.203 2.922,3.578 v 8.668 h -0.031 v 12.951 c 0.145,1.53 0.545,2.514 1.219,3.037 0.092,0.096 0.347,0.27 1.326,0.645 0.723,0.273 1.592,0.514 2.59,0.711 1.014,0.203 2.139,0.322 3.342,0.357 l 0.324,0.004 c 1.111,0 2.209,-0.156 3.262,-0.465 0.25,-0.082 0.285,-0.09 0.322,-0.09 0.701,-0.162 1.254,0.7 1.461,1.534 l 2.242,9.037 C 0.746,-1.094 0.562,-0.457 0,0" /></g><g
           transform="translate(517.5723,63.0977)"
           id="g56"><path
             id="path58"
             style="fill:#4bade5;fill-opacity:1;fill-rule:nonzero;stroke:none"
             d="M 0,0 C 0,0.143 -0.104,0.191 -0.215,0.172 -0.289,0.16 -0.367,0.107 -0.412,0.076 c -1.342,-0.943 -3.045,-1.742 -4.916,-2.611 -1.854,-0.86 -3.844,-1.651 -5.916,-2.354 -2.07,-0.699 -4.178,-1.257 -6.266,-1.656 -4.412,-0.842 -8.467,-0.801 -10.793,0.168 -1.25,0.522 -2.23,1.244 -2.918,2.145 -0.609,0.785 -1.097,1.738 -1.271,2.867 -0.026,0.16 -0.047,0.385 -0.069,0.576 3.155,0.09 8.147,0.467 10.543,0.939 2.983,0.592 5.741,1.537 8.19,2.811 2.435,1.268 4.392,2.959 5.816,5.033 1.41,2.051 1.965,4.662 1.641,7.76 -0.065,0.767 -0.359,1.791 -0.875,3.055 -0.51,1.244 -1.457,2.478 -2.807,3.673 -1.363,1.198 -3.308,2.25 -5.779,3.123 -2.473,0.883 -5.756,1.331 -9.758,1.331 -4.322,0 -8.676,-0.881 -12.935,-2.618 -4.246,-1.732 -7.791,-4.464 -10.534,-8.121 -1.171,-1.564 -2.043,-3.209 -2.591,-4.89 -0.555,-1.694 -0.903,-3.377 -1.032,-5.01 -0.132,-1.623 -0.086,-3.156 0.145,-4.561 0.234,-1.429 0.517,-2.709 0.836,-3.797 0.846,-2.66 2.127,-4.898 3.814,-6.65 1.694,-1.758 3.641,-3.16 5.785,-4.168 2.155,-1.01 4.473,-1.723 6.893,-2.115 2.43,-0.395 4.814,-0.527 7.109,-0.395 2.366,0.131 4.829,0.498 7.319,1.088 2.511,0.596 5.013,1.377 7.429,2.326 2.432,0.954 4.819,2.073 7.092,3.323 2.182,1.201 4.194,2.543 5.979,3.986 0.088,0.07 0.107,0.08 0.181,0.17 0.049,0.064 0.063,0.094 0.063,0.185 C -0.037,-4.307 0,-0.107 0,0 m -32.873,3.922 v 0.002 c 0.051,1.849 0.309,3.412 0.764,4.646 0.504,1.391 1.179,2.537 2.005,3.401 0.827,0.857 1.717,1.484 2.651,1.863 0.914,0.375 1.801,0.602 2.633,0.674 1.617,0.203 3.043,-0.156 4.072,-1.076 1.027,-0.926 1.687,-2.118 1.547,-3.524 -0.264,-2.683 -2.445,-3.822 -3.563,-4.349 -2.855,-1.348 -5.875,-1.834 -8.234,-2.223 -0.383,-0.063 -1.328,-0.133 -1.854,-0.168 -0.009,0.262 -0.021,0.539 -0.021,0.754" /></g><g
           transform="translate(299.6035,88.6836)"
           id="g60"><path
             id="path62"
             style="fill:#4bade5;fill-opacity:1;fill-rule:nonzero;stroke:none"
             d="m 0,0 c 0,0.771 -0.406,1.168 -1.316,1.285 -2.905,0.469 -23.996,0.053 -29.704,-1.568 -4.035,-1.147 -7.385,-2.74 -9.957,-4.729 -2.573,-1.984 -4.503,-4.408 -5.741,-7.205 -1.239,-2.808 -1.865,-5.916 -1.865,-9.24 0,-6.209 1.321,-11.039 3.92,-14.356 2.58,-3.294 6.222,-4.962 10.817,-4.962 2.274,0 4.193,0.343 5.704,1.019 1.525,0.684 2.834,1.535 3.896,2.533 1.074,1.014 1.996,2.1 2.738,3.233 0.764,1.166 1.488,2.197 2.153,3.06 l 0.084,0.106 v -0.059 -30.193 c 0,-0.901 -0.096,-2.045 0.158,-2.799 0.217,-0.656 1.157,-1.02 2.793,-1.082 0.971,0.002 2.263,0.1 3.838,0.297 1.557,0.191 3.155,0.506 4.739,0.937 1.581,0.43 3.056,0.944 4.388,1.53 1.3,0.566 2.248,1.238 2.816,1.994 0.359,0.416 0.531,1.185 0.531,2.301 v 33.211 C -0.004,-24.639 0,-24.586 0,-24.545 Z m -19.482,-25.863 c -1.086,-1.086 -2.122,-1.846 -3.081,-2.26 -0.968,-0.414 -1.846,-0.623 -2.613,-0.623 -0.424,0 -0.982,0.068 -1.656,0.205 -0.723,0.145 -1.462,0.574 -2.2,1.275 -0.726,0.692 -1.354,1.737 -1.87,3.11 -0.509,1.357 -0.766,3.269 -0.766,5.687 0,4.85 1.07,8.393 3.177,10.535 2.11,2.145 5.067,3.235 8.786,3.235 h 0.312 z" /></g><g
           transform="translate(245.687,64.7383)"
           id="g64"><path
             id="path66"
             style="fill:#4bade5;fill-opacity:1;fill-rule:nonzero;stroke:none"
             d="m 0,0 c -1.107,1.658 -2.515,3.148 -4.179,4.422 -1.668,1.275 -3.428,2.357 -5.234,3.211 -1.831,0.865 -3.212,1.529 -4.142,1.996 -2.317,1.158 -3.848,2.277 -4.679,3.42 -0.878,1.205 -0.904,2.273 -0.078,3.17 0.636,0.638 1.587,1.08 2.833,1.324 1.221,0.236 2.589,0.305 4.104,0.203 1.493,-0.1 3.07,-0.369 4.683,-0.805 1.607,-0.435 3.105,-1.066 4.451,-1.871 0.355,-0.066 0.4,-0.013 0.4,0.172 0,0 0.014,4.789 -0.017,4.903 -10e-4,0.003 -0.003,0.005 -0.003,0.007 -0.025,0.059 -0.06,0.088 -0.141,0.153 -1.36,0.935 -2.924,1.771 -4.71,2.519 -1.809,0.756 -3.788,1.371 -5.885,1.83 -2.143,0.428 -4.531,0.643 -7.099,0.643 l -0.565,-0.002 c -2.789,-0.033 -5.46,-0.465 -7.943,-1.281 -2.475,-0.817 -4.603,-2.102 -6.327,-3.825 -1.708,-1.709 -2.706,-4.119 -2.963,-7.16 -0.124,-1.861 0.363,-3.617 1.452,-5.213 1.115,-1.634 2.486,-3.125 4.084,-4.427 1.616,-1.321 3.314,-2.502 5.052,-3.516 1.76,-1.031 3.174,-1.883 4.238,-2.547 1.079,-0.674 1.918,-1.306 2.489,-1.879 0.582,-0.582 1,-1.125 1.244,-1.613 0.254,-0.51 0.348,-0.982 0.274,-1.406 -0.078,-0.422 -0.27,-0.785 -0.571,-1.086 -0.7,-0.703 -1.824,-1.164 -3.339,-1.371 -1.478,-0.201 -3.094,-0.153 -4.816,0.152 -1.704,0.297 -3.465,0.84 -5.237,1.611 -1.736,0.75 -3.258,1.735 -4.529,2.92 -0.014,0.018 -0.033,0.032 -0.051,0.043 -0.011,0.01 -0.042,0.03 -0.049,0.03 -0.028,0.009 -0.057,0.017 -0.089,0.017 -0.049,0 -0.091,-0.017 -0.131,-0.043 -0.006,-0.004 -0.013,-0.008 -0.018,-0.013 -0.023,-0.016 -0.04,-0.036 -0.055,-0.057 -0.002,-0.004 -0.005,-0.008 -0.006,-0.012 -0.011,-0.017 -0.018,-0.035 -0.024,-0.055 l -0.015,-0.048 v -5.084 c 0,-0.063 0.041,-0.133 0.118,-0.209 1.304,-1.241 3.095,-2.45 5.321,-3.594 2.229,-1.149 4.792,-2.063 7.612,-2.717 2.346,-0.523 4.943,-0.67 7.74,-0.443 2.785,0.228 5.463,0.828 7.953,1.777 2.484,0.947 4.666,2.287 6.493,3.984 1.811,1.68 2.958,3.747 3.408,6.135 C 1.437,-3.521 1.084,-1.627 0,0" /></g></g></g></g></svg>